<svg width="11" height="11" viewBox="0 0 11 11" fill="none" xmlns="http://www.w3.org/2000/svg">
<path fill-rule="evenodd" clip-rule="evenodd" d="M4.89769 0L5.50008 0L6.10246 0L5.80127 2.75004L5.50008 5.50008L5.19888 2.75004L4.89769 0ZM5.50008 5.50008L6.61419 2.9678L7.72845 0.435675L8.25011 0.736867L8.77178 1.03806L7.13585 3.26899L5.50008 5.50008ZM5.50008 5.50008L7.73101 3.86415L9.96209 2.22837L10.2633 2.75004L10.5645 3.2717L8.0322 4.38581L5.50008 5.50008ZM5.50008 5.50008L8.25011 5.19888L11 4.89769V5.50008V6.10246L8.25011 5.80127L5.50008 5.50008ZM5.50008 5.50008L8.0322 6.61419L10.5645 7.72845L10.2633 8.25011L9.96209 8.77178L7.73101 7.13585L5.50008 5.50008ZM5.50008 5.50008L6.61419 8.0322L7.72845 10.5645L8.25011 10.2633L8.77178 9.96209L7.13585 7.73101L5.50008 5.50008ZM5.50008 5.50008L5.80127 8.25011L6.10246 11H5.50008H4.89769L5.19888 8.25011L5.50008 5.50008ZM5.50008 5.50008L4.38581 8.0322L3.2717 10.5645L2.75004 10.2633L2.22837 9.96209L3.86415 7.73101L5.50008 5.50008ZM5.50008 5.50008L3.26899 7.13585L1.03806 8.77178L0.736867 8.25011L0.435675 7.72845L2.9678 6.61419L5.50008 5.50008ZM5.50008 5.50008L2.75004 5.80127L0 6.10246L0 5.50008L0 4.89769L2.75004 5.19888L5.50008 5.50008ZM5.50008 5.50008L2.9678 4.38581L0.435675 3.2717L0.736867 2.75004L1.03806 2.22837L3.26899 3.86415L5.50008 5.50008ZM5.50008 5.50008L3.86415 3.26899L2.22837 1.03806L2.75004 0.736867L3.2717 0.435675L4.38581 2.9678L5.50008 5.50008Z" fill="white"/>
</svg>
