<svg width="473" height="84" viewBox="0 0 473 84" fill="none" xmlns="http://www.w3.org/2000/svg">
<g clip-path="url(#clip0_145_306)">
<path d="M28.677 66.79C23.3577 66.79 18.9863 65.9473 15.563 64.262C12.1397 62.5767 9.61167 60.154 7.979 56.994C6.34633 53.7813 5.53 49.963 5.53 45.539V23.261C5.53 21.5757 5.34567 20.3907 4.977 19.706C4.661 18.9687 4.31867 18.6 3.95 18.6H15.958C15.5893 18.6527 15.2207 19.0213 14.852 19.706C14.536 20.3907 14.378 21.5757 14.378 23.261V45.381C14.378 49.0677 14.9573 52.017 16.116 54.229C17.2747 56.3883 18.9337 57.9683 21.093 58.969C23.2523 59.917 25.8067 60.391 28.756 60.391H29.625C31.8897 60.391 33.891 60.1277 35.629 59.601C37.367 59.0743 38.8417 58.2317 40.053 57.073C41.2643 55.9143 42.1597 54.387 42.739 52.491C43.371 50.5423 43.687 48.1723 43.687 45.381V23.261C43.687 21.5757 43.5027 20.3907 43.134 19.706C42.818 18.9687 42.4757 18.6 42.107 18.6H54.115C53.7463 18.6527 53.3777 19.0477 53.009 19.785C52.693 20.4697 52.535 21.6547 52.535 23.34V45.539C52.535 49.963 51.6923 53.7813 50.007 56.994C48.3743 60.154 45.8463 62.5767 42.423 64.262C39.0523 65.9473 34.7337 66.79 29.467 66.79H28.677ZM65.9928 66C66.3614 66 66.7301 65.6313 67.0988 64.894C67.4674 64.1567 67.6518 62.9453 67.6518 61.26V23.34C67.6518 21.6547 67.4674 20.4697 67.0988 19.785C66.7301 19.0477 66.3614 18.6527 65.9928 18.6H78.1588C77.7901 18.6 77.4214 18.9687 77.0528 19.706C76.6841 20.4433 76.4998 21.681 76.4998 23.419V61.26C76.4998 62.9453 76.6841 64.1567 77.0528 64.894C77.4214 65.6313 77.7901 66 78.1588 66H65.9928ZM114.768 66.79C109.449 66.79 105.078 65.9473 101.654 64.262C98.2312 62.5767 95.7032 60.154 94.0705 56.994C92.4378 53.7813 91.6215 49.963 91.6215 45.539V23.261C91.6215 21.5757 91.4372 20.3907 91.0685 19.706C90.7525 18.9687 90.4102 18.6 90.0415 18.6H102.049C101.681 18.6527 101.312 19.0213 100.943 19.706C100.627 20.3907 100.469 21.5757 100.469 23.261V45.381C100.469 49.0677 101.049 52.017 102.207 54.229C103.366 56.3883 105.025 57.9683 107.184 58.969C109.344 59.917 111.898 60.391 114.847 60.391H115.716C117.981 60.391 119.982 60.1277 121.72 59.601C123.458 59.0743 124.933 58.2317 126.144 57.073C127.356 55.9143 128.251 54.387 128.83 52.491C129.462 50.5423 129.778 48.1723 129.778 45.381V23.261C129.778 21.5757 129.594 20.3907 129.225 19.706C128.909 18.9687 128.567 18.6 128.198 18.6H140.206C139.838 18.6527 139.469 19.0477 139.1 19.785C138.784 20.4697 138.626 21.6547 138.626 23.34V45.539C138.626 49.963 137.784 53.7813 136.098 56.994C134.466 60.154 131.938 62.5767 128.514 64.262C125.144 65.9473 120.825 66.79 115.558 66.79H114.768ZM148.134 66C148.398 65.9473 148.977 65.5787 149.872 64.894C150.768 64.1567 151.953 62.9717 153.427 61.339C154.849 59.759 156.271 58.179 157.693 56.599C159.115 54.9663 160.511 53.36 161.88 51.78C163.302 50.2 164.724 48.62 166.146 47.04C167.568 45.4073 168.99 43.801 170.412 42.221C169.096 40.6937 167.621 39.0347 165.988 37.244C164.356 35.4007 162.749 33.5837 161.169 31.793C159.589 30.0023 158.141 28.396 156.824 26.974C155.56 25.4993 154.56 24.3407 153.822 23.498C152.295 21.76 151.031 20.5223 150.03 19.785C149.082 19.0477 148.45 18.6527 148.134 18.6H163.539C163.065 18.5473 162.855 18.8897 162.907 19.627C163.013 20.3643 163.776 21.6547 165.198 23.498C165.778 24.2353 166.462 25.1833 167.252 26.342C168.095 27.448 168.964 28.633 169.859 29.897C170.807 31.161 171.703 32.3723 172.545 33.531C173.388 34.6897 174.099 35.6903 174.678 36.533C175.31 37.323 175.732 37.8497 175.942 38.113H176.1C176.258 37.8497 176.627 37.323 177.206 36.533C177.838 35.743 178.576 34.795 179.418 33.689C180.314 32.5303 181.209 31.3453 182.104 30.134C183.052 28.87 183.948 27.6587 184.79 26.5C185.686 25.2887 186.449 24.2353 187.081 23.34C188.293 21.602 188.951 20.3907 189.056 19.706C189.214 18.9687 189.109 18.6 188.74 18.6H203.513C203.303 18.6 202.75 18.9687 201.854 19.706C200.959 20.3907 199.748 21.5757 198.22 23.261C196.798 24.841 195.376 26.421 193.954 28.001C192.585 29.581 191.216 31.161 189.846 32.741C188.477 34.321 187.081 35.901 185.659 37.481C184.29 39.061 182.894 40.641 181.472 42.221C182.789 43.801 184.237 45.5127 185.817 47.356C187.397 49.1993 188.977 51.0163 190.557 52.807C192.137 54.5977 193.559 56.2303 194.823 57.705C196.14 59.1797 197.167 60.312 197.904 61.102C199.432 62.7347 200.669 63.946 201.617 64.736C202.618 65.4733 203.276 65.8947 203.592 66H189.056C189.478 65.9473 189.609 65.5523 189.451 64.815C189.346 64.0777 188.661 62.84 187.397 61.102C186.871 60.3647 186.16 59.443 185.264 58.337C184.369 57.231 183.421 56.0723 182.42 54.861C181.472 53.597 180.524 52.412 179.576 51.306C178.681 50.2 177.917 49.252 177.285 48.462C176.653 47.6193 176.232 47.0663 176.021 46.803H175.863C175.705 47.0137 175.31 47.514 174.678 48.304C174.099 49.094 173.362 50.042 172.466 51.148C171.624 52.254 170.728 53.439 169.78 54.703C168.832 55.9143 167.911 57.0993 167.015 58.258C166.12 59.364 165.33 60.3647 164.645 61.26C163.381 62.8927 162.697 64.0777 162.591 64.815C162.486 65.5523 162.618 65.9473 162.986 66H148.134Z" fill="#1E1E1E"/>
</g>
<defs>
<clipPath id="clip0_145_306">
<rect width="473" height="84" fill="white"/>
</clipPath>
</defs>
</svg>
