<svg width="473" height="84" viewBox="0 0 473 84" fill="none" xmlns="http://www.w3.org/2000/svg">
<g clip-path="url(#clip0_145_308)">
<path d="M29.33 56C31.3833 56 33.3667 55.58 35.28 54.74C37.1933 53.9 38.9667 52.6867 40.6 51.1L42.42 53.13C36.68 60.41 30.1 64.05 22.68 64.05C18.4333 64.05 14.7233 63.0933 11.55 61.18C8.42333 59.2667 5.99667 56.56 4.27 53.06C2.54333 49.56 1.68 45.4533 1.68 40.74C1.68 36.68 2.45 32.76 3.99 28.98C5.57667 25.1533 7.58333 22.0967 10.01 19.81C12.39 18.27 14.9333 17.1033 17.64 16.31C20.3933 15.47 23.1 15.05 25.76 15.05C29.3067 15.05 32.55 15.82 35.49 17.36C38.4767 18.8533 40.8333 20.9533 42.56 23.66L33.95 30.87C31.5233 26.5767 28.6067 21.9333 25.2 16.94C23.1467 17.78 21.28 19.2267 19.6 21.28C17.92 23.3333 16.59 25.7833 15.61 28.63C14.6767 31.4767 14.21 34.44 14.21 37.52C14.21 43.4 15.5167 47.95 18.13 51.17C20.79 54.39 24.5233 56 29.33 56ZM59.3146 23.52C59.3146 25.0133 59.7346 26.39 60.5746 27.65C61.4146 28.91 62.4646 30.03 63.7246 31.01C64.9846 31.99 66.7113 33.2033 68.9046 34.65C71.4713 36.33 73.5246 37.8233 75.0646 39.13C76.6046 40.39 77.9113 41.93 78.9846 43.75C80.1046 45.5233 80.6646 47.53 80.6646 49.77C80.6646 52.2433 79.9879 54.5767 78.6346 56.77C77.2813 58.9167 75.2513 60.6667 72.5446 62.02C69.8379 63.3733 66.5713 64.05 62.7446 64.05C54.5313 64.05 48.6979 60.7833 45.2446 54.25L53.1546 48.16C55.3946 52.78 57.9146 57.26 60.7146 61.6H60.7846C62.1379 61.6 63.3979 61.25 64.5646 60.55C65.7313 59.8033 66.6646 58.8467 67.3646 57.68C68.0646 56.5133 68.4146 55.2767 68.4146 53.97C68.4146 52.57 67.9946 51.2867 67.1546 50.12C66.3613 48.9067 65.3579 47.8567 64.1446 46.97C62.9313 46.0367 61.2746 44.9167 59.1746 43.61C56.6546 42.0233 54.6246 40.6233 53.0846 39.41C51.5446 38.1967 50.2146 36.7267 49.0946 35C48.0213 33.2267 47.4846 31.1967 47.4846 28.91C47.4846 26.3433 48.2079 24.01 49.6546 21.91C51.1479 19.7633 53.2479 18.0833 55.9546 16.87C58.7079 15.6567 61.9279 15.05 65.6146 15.05C69.2079 15.05 72.1479 15.6333 74.4346 16.8C76.7679 17.92 78.8679 19.53 80.7346 21.63L73.3846 29.05C70.9113 24.9433 68.4146 21.0933 65.8946 17.5C63.7946 17.5 62.1613 18.0833 60.9946 19.25C59.8746 20.37 59.3146 21.7933 59.3146 23.52ZM99.2693 23.52C99.2693 25.0133 99.6893 26.39 100.529 27.65C101.369 28.91 102.419 30.03 103.679 31.01C104.939 31.99 106.666 33.2033 108.859 34.65C111.426 36.33 113.479 37.8233 115.019 39.13C116.559 40.39 117.866 41.93 118.939 43.75C120.059 45.5233 120.619 47.53 120.619 49.77C120.619 52.2433 119.943 54.5767 118.589 56.77C117.236 58.9167 115.206 60.6667 112.499 62.02C109.793 63.3733 106.526 64.05 102.699 64.05C94.486 64.05 88.6526 60.7833 85.1993 54.25L93.1093 48.16C95.3493 52.78 97.8693 57.26 100.669 61.6H100.739C102.093 61.6 103.353 61.25 104.519 60.55C105.686 59.8033 106.619 58.8467 107.319 57.68C108.019 56.5133 108.369 55.2767 108.369 53.97C108.369 52.57 107.949 51.2867 107.109 50.12C106.316 48.9067 105.313 47.8567 104.099 46.97C102.886 46.0367 101.229 44.9167 99.1293 43.61C96.6093 42.0233 94.5793 40.6233 93.0393 39.41C91.4993 38.1967 90.1693 36.7267 89.0493 35C87.976 33.2267 87.4393 31.1967 87.4393 28.91C87.4393 26.3433 88.1626 24.01 89.6093 21.91C91.1026 19.7633 93.2026 18.0833 95.9093 16.87C98.6626 15.6567 101.883 15.05 105.569 15.05C109.163 15.05 112.103 15.6333 114.389 16.8C116.723 17.92 118.823 19.53 120.689 21.63L113.339 29.05C110.866 24.9433 108.369 21.0933 105.849 17.5C103.749 17.5 102.116 18.0833 100.949 19.25C99.8293 20.37 99.2693 21.7933 99.2693 23.52ZM161.003 63.608C159.255 62.9493 157.431 62.088 155.531 61.024C154.543 61.8093 153.314 62.43 151.845 62.886C150.401 63.342 148.893 63.57 147.323 63.57C145.676 63.57 144.169 63.304 142.801 62.772C141.458 62.24 140.394 61.4927 139.609 60.53C138.823 59.542 138.431 58.3893 138.431 57.072C138.431 55.7547 138.849 54.5007 139.685 53.31C140.546 52.1193 141.686 51.1187 143.105 50.308C141.433 47.952 140.597 45.8747 140.597 44.076C140.597 42.936 140.939 41.8213 141.623 40.732C142.332 39.6173 143.32 38.718 144.587 38.034C145.853 37.3247 147.272 36.97 148.843 36.97C150.211 36.97 151.401 37.236 152.415 37.768C153.453 38.3 154.239 38.9967 154.771 39.858C155.328 40.7193 155.607 41.6313 155.607 42.594C155.607 43.9873 155.062 45.33 153.973 46.622C152.909 47.8887 151.604 48.8767 150.059 49.586C151.832 51.258 153.922 52.7907 156.329 54.184C156.886 52.056 157.317 49.852 157.621 47.572L155.683 47.534V46.204H163.891V47.534L162.029 47.572C160.686 51.372 159.673 54.0573 158.989 55.628C160.939 56.5653 162.827 57.3 164.651 57.832L161.003 63.608ZM150.097 45.292C150.097 44.3293 149.881 43.4427 149.451 42.632C149.02 41.8213 148.437 41.1627 147.703 40.656C146.993 40.124 146.221 39.82 145.385 39.744C145.207 40.3013 145.119 40.846 145.119 41.378C145.119 43.5567 146.449 46.0013 149.109 48.712C149.767 47.6227 150.097 46.4827 150.097 45.292ZM154.201 60.226C152.326 59.0607 150.553 57.7813 148.881 56.388C147.234 54.9947 145.79 53.576 144.549 52.132C144.295 52.9173 144.169 53.652 144.169 54.336C144.169 55.552 144.536 56.6287 145.271 57.566C146.031 58.478 147.044 59.1747 148.311 59.656C149.577 60.1373 150.971 60.378 152.491 60.378C153.073 60.378 153.643 60.34 154.201 60.264V60.226ZM225.131 18.62V60.48L228.561 60.55V63H210.081V60.55L213.511 60.48V41.02H197.831V60.48L201.261 60.55V63H182.781V60.55L186.211 60.48V18.62L182.781 18.55V16.1H201.261V18.55L197.831 18.62V38.43H213.511V18.62L210.081 18.55V16.1H228.561V18.55L225.131 18.62ZM253.215 57.47L244.675 63.63C241.221 63.63 238.701 62.79 237.115 61.11C235.575 59.3833 234.805 56.63 234.805 52.85V34.23H230.115V31.99C232.075 30.9167 234.198 29.4 236.485 27.44C238.818 25.4333 240.941 23.3333 242.855 21.14L245.165 21.84L244.815 31.5H253.005V34.44L244.675 34.3V50.4C244.675 52.64 245.095 54.2733 245.935 55.3C246.821 56.3267 247.988 56.84 249.435 56.84L252.025 55.37L253.215 57.47ZM308.507 60.97V63H293.527V60.97L296.117 60.76V45.99C296.117 43.9367 295.58 42.35 294.507 41.23C293.48 40.0633 292.034 39.4567 290.167 39.41L287.577 42V43.19V60.76L290.097 60.97V63H275.117V60.97L277.707 60.76V45.99C277.707 43.9367 277.17 42.35 276.097 41.23C275.07 40.11 273.624 39.5267 271.757 39.48L269.447 41.79L269.167 60.76L271.757 60.97V63H256.707V60.97L259.297 60.76L259.087 35.7L256.427 36.33L255.727 34.23L266.787 30.8L269.237 38.64L275.047 30.31C278.64 30.31 281.417 31.0333 283.377 32.48C285.384 33.9267 286.667 36.1667 287.227 39.2L293.457 30.24C297.75 30.24 300.9 31.29 302.907 33.39C304.96 35.49 305.987 38.7567 305.987 43.19V60.76L308.507 60.97ZM311.687 60.97L314.277 60.76L313.927 18.83L311.267 19.39L310.567 17.36L323.517 13.44L324.497 15.12L324.147 60.76L326.737 60.97V63H311.687V60.97Z" fill="#1E1E1E"/>
</g>
<defs>
<clipPath id="clip0_145_308">
<rect width="473" height="84" fill="white"/>
</clipPath>
</defs>
</svg>
