<svg width="473" height="84" viewBox="0 0 473 84" fill="none" xmlns="http://www.w3.org/2000/svg">
<g clip-path="url(#clip0_145_307)">
<path d="M65.3906 49.5859C65.3906 51.6016 65.0039 53.4883 64.2305 55.2461C63.4805 56.9805 62.4492 58.5039 61.1367 59.8164C59.8477 61.1055 58.3242 62.125 56.5664 62.875C54.8086 63.625 52.9453 64 50.9766 64H16.8398V56.793H50.9766C51.9609 56.793 52.8867 56.6055 53.7539 56.2305C54.6445 55.8555 55.418 55.3398 56.0742 54.6836C56.7305 54.0273 57.2461 53.2656 57.6211 52.3984C57.9961 51.5078 58.1836 50.5703 58.1836 49.5859C58.1836 48.6016 57.9961 47.6758 57.6211 46.8086C57.2461 45.9414 56.7305 45.1797 56.0742 44.5234C55.418 43.8672 54.6445 43.3516 53.7539 42.9766C52.8867 42.6016 51.9609 42.4141 50.9766 42.4141H16.8398V35.207H43.7695C44.7539 35.207 45.6797 35.0195 46.5469 34.6445C47.4375 34.2695 48.2109 33.7539 48.8672 33.0977C49.5234 32.4414 50.0391 31.6797 50.4141 30.8125C50.7891 29.9219 50.9766 28.9844 50.9766 28C50.9766 27.0156 50.7891 26.0898 50.4141 25.2227C50.0391 24.332 49.5234 23.5586 48.8672 22.9023C48.2109 22.2461 47.4375 21.7305 46.5469 21.3555C45.6797 20.9805 44.7539 20.793 43.7695 20.793H13.2539V64H6.04688V13.5859H43.7695C45.7383 13.5859 47.6016 13.9727 49.3594 14.7461C51.1172 15.4961 52.6406 16.5273 53.9297 17.8398C55.2422 19.1289 56.2734 20.6523 57.0234 22.4102C57.7969 24.168 58.1836 26.0312 58.1836 28C58.1836 29.5234 57.9609 30.9648 57.5156 32.3242C57.0703 33.6602 56.4727 34.9023 55.7227 36.0508C57.1289 36.543 58.418 37.2344 59.5898 38.125C60.7852 39.0156 61.8047 40.0469 62.6484 41.2188C63.5156 42.3906 64.1836 43.6914 64.6523 45.1211C65.1445 46.5273 65.3906 48.0156 65.3906 49.5859ZM121.849 64H94.8487C92.13 64 89.5753 63.4844 87.1847 62.4531C84.7941 61.3984 82.7081 59.9805 80.9269 58.1992C79.1691 56.3945 77.7745 54.2969 76.7433 51.9062C75.712 49.4922 75.1964 46.9258 75.1964 44.207V24.4141H82.4034V44.207C82.4034 45.9414 82.7198 47.5703 83.3527 49.0938C84.0089 50.5938 84.8995 51.918 86.0245 53.0664C87.1495 54.1914 88.462 55.0938 89.962 55.7734C91.4855 56.4297 93.1144 56.7695 94.8487 56.793H114.642V24.4141H121.849V64ZM176.444 51.4141C176.444 53.1484 176.115 54.7891 175.459 56.3359C174.803 57.8594 173.901 59.1953 172.752 60.3438C171.627 61.4688 170.291 62.3594 168.744 63.0156C167.221 63.6719 165.592 64 163.858 64H133.237V56.793H163.858C164.584 56.793 165.276 56.6523 165.932 56.3711C166.588 56.0898 167.162 55.7031 167.655 55.2109C168.147 54.7188 168.533 54.1562 168.815 53.5234C169.096 52.8672 169.237 52.1641 169.237 51.4141C169.237 50.6875 169.096 49.9961 168.815 49.3398C168.533 48.6836 168.147 48.1094 167.655 47.6172C167.162 47.125 166.588 46.7383 165.932 46.457C165.276 46.1523 164.584 46 163.858 46H144.03C142.53 46 141.123 45.7188 139.811 45.1562C138.498 44.5938 137.35 43.832 136.365 42.8711C135.405 41.8867 134.643 40.7383 134.08 39.4258C133.518 38.1133 133.237 36.707 133.237 35.207C133.237 33.707 133.518 32.3008 134.08 30.9883C134.643 29.6758 135.405 28.5391 136.365 27.5781C137.35 26.5938 138.498 25.8203 139.811 25.2578C141.123 24.6953 142.53 24.4141 144.03 24.4141H172.858V31.5859H144.03C143.022 31.5859 142.166 31.9375 141.463 32.6406C140.783 33.3203 140.444 34.1758 140.444 35.207C140.444 36.2148 140.783 37.0703 141.463 37.7734C142.166 38.4531 143.022 38.793 144.03 38.793H163.858C165.592 38.793 167.221 39.1211 168.744 39.7773C170.291 40.4336 171.627 41.3359 172.752 42.4844C173.901 43.6328 174.803 44.9688 175.459 46.4922C176.115 48.0156 176.444 49.6562 176.444 51.4141ZM195.706 15.4141C195.706 16.1641 195.566 16.8672 195.285 17.5234C195.003 18.1562 194.617 18.7188 194.124 19.2109C193.632 19.7031 193.058 20.0898 192.402 20.3711C191.745 20.6523 191.054 20.793 190.327 20.793C189.577 20.793 188.874 20.6523 188.218 20.3711C187.562 20.0898 186.988 19.7031 186.495 19.2109C186.003 18.7188 185.617 18.1562 185.335 17.5234C185.054 16.8672 184.913 16.1641 184.913 15.4141C184.913 14.6875 185.054 13.9961 185.335 13.3398C185.617 12.6836 186.003 12.1094 186.495 11.6172C186.988 11.125 187.562 10.7383 188.218 10.457C188.874 10.1523 189.577 10 190.327 10C191.054 10 191.745 10.1523 192.402 10.457C193.058 10.7383 193.632 11.125 194.124 11.6172C194.617 12.1094 195.003 12.6836 195.285 13.3398C195.566 13.9961 195.706 14.6875 195.706 15.4141ZM193.913 64H186.706V24.4141H193.913V64ZM214.372 64H207.165V24.4141H234.165C236.883 24.4141 239.438 24.9414 241.829 25.9961C244.219 27.0273 246.305 28.4453 248.086 30.25C249.868 32.0312 251.274 34.1289 252.305 36.543C253.336 38.9336 253.852 41.4883 253.852 44.207V64H246.645V44.207C246.645 42.4727 246.317 40.8438 245.661 39.3203C245.004 37.7969 244.114 36.4727 242.989 35.3477C241.864 34.1992 240.54 33.2969 239.016 32.6406C237.516 31.9609 235.899 31.6094 234.165 31.5859H214.372V64ZM312.525 37C312.525 38.7578 312.197 40.3984 311.541 41.9219C310.884 43.4453 309.982 44.7812 308.834 45.9297C307.709 47.0547 306.373 47.9453 304.826 48.6016C303.302 49.2578 301.673 49.5859 299.939 49.5859H272.341C272.857 50.6406 273.502 51.6133 274.275 52.5039C275.048 53.3945 275.916 54.1562 276.877 54.7891C277.837 55.4219 278.88 55.9141 280.005 56.2656C281.154 56.6172 282.349 56.793 283.591 56.793H307.146V64H283.591C280.873 63.9766 278.318 63.4492 275.927 62.418C273.537 61.3633 271.451 59.9453 269.67 58.1641C267.912 56.3594 266.517 54.2617 265.486 51.8711C264.455 49.4805 263.939 46.9258 263.939 44.207C263.939 41.4883 264.455 38.9336 265.486 36.543C266.517 34.1523 267.912 32.0664 269.67 30.2852C271.451 28.4805 273.537 27.0625 275.927 26.0312C278.318 24.9766 280.873 24.4375 283.591 24.4141H299.939C301.673 24.4141 303.302 24.7422 304.826 25.3984C306.373 26.0547 307.709 26.957 308.834 28.1055C309.982 29.2305 310.884 30.5547 311.541 32.0781C312.197 33.6016 312.525 35.2422 312.525 37ZM299.939 42.4141C300.666 42.4141 301.357 42.2734 302.013 41.9922C302.67 41.7109 303.244 41.3242 303.736 40.832C304.228 40.3398 304.615 39.7656 304.896 39.1094C305.177 38.4531 305.318 37.75 305.318 37C305.318 36.2734 305.177 35.582 304.896 34.9258C304.615 34.2695 304.228 33.6953 303.736 33.2031C303.244 32.7109 302.67 32.3242 302.013 32.043C301.357 31.7383 300.666 31.5859 299.939 31.5859H283.591C281.998 31.5859 280.498 31.8672 279.091 32.4297C277.709 32.9922 276.466 33.7656 275.365 34.75C274.287 35.7109 273.384 36.8594 272.658 38.1953C271.955 39.5078 271.498 40.9141 271.287 42.4141H299.939ZM363.815 51.4141C363.815 53.1484 363.487 54.7891 362.831 56.3359C362.175 57.8594 361.272 59.1953 360.124 60.3438C358.999 61.4688 357.663 62.3594 356.116 63.0156C354.592 63.6719 352.964 64 351.229 64H320.608V56.793H351.229C351.956 56.793 352.647 56.6523 353.303 56.3711C353.96 56.0898 354.534 55.7031 355.026 55.2109C355.518 54.7188 355.905 54.1562 356.186 53.5234C356.467 52.8672 356.608 52.1641 356.608 51.4141C356.608 50.6875 356.467 49.9961 356.186 49.3398C355.905 48.6836 355.518 48.1094 355.026 47.6172C354.534 47.125 353.96 46.7383 353.303 46.457C352.647 46.1523 351.956 46 351.229 46H331.401C329.901 46 328.495 45.7188 327.182 45.1562C325.87 44.5938 324.721 43.832 323.737 42.8711C322.776 41.8867 322.014 40.7383 321.452 39.4258C320.889 38.1133 320.608 36.707 320.608 35.207C320.608 33.707 320.889 32.3008 321.452 30.9883C322.014 29.6758 322.776 28.5391 323.737 27.5781C324.721 26.5938 325.87 25.8203 327.182 25.2578C328.495 24.6953 329.901 24.4141 331.401 24.4141H360.229V31.5859H331.401C330.393 31.5859 329.538 31.9375 328.835 32.6406C328.155 33.3203 327.815 34.1758 327.815 35.207C327.815 36.2148 328.155 37.0703 328.835 37.7734C329.538 38.4531 330.393 38.793 331.401 38.793H351.229C352.964 38.793 354.592 39.1211 356.116 39.7773C357.663 40.4336 358.999 41.3359 360.124 42.4844C361.272 43.6328 362.175 44.9688 362.831 46.4922C363.487 48.0156 363.815 49.6562 363.815 51.4141ZM415.422 51.4141C415.422 53.1484 415.094 54.7891 414.437 56.3359C413.781 57.8594 412.879 59.1953 411.73 60.3438C410.605 61.4688 409.269 62.3594 407.723 63.0156C406.199 63.6719 404.57 64 402.836 64H372.215V56.793H402.836C403.562 56.793 404.254 56.6523 404.91 56.3711C405.566 56.0898 406.14 55.7031 406.633 55.2109C407.125 54.7188 407.512 54.1562 407.793 53.5234C408.074 52.8672 408.215 52.1641 408.215 51.4141C408.215 50.6875 408.074 49.9961 407.793 49.3398C407.512 48.6836 407.125 48.1094 406.633 47.6172C406.14 47.125 405.566 46.7383 404.91 46.457C404.254 46.1523 403.562 46 402.836 46H383.008C381.508 46 380.101 45.7188 378.789 45.1562C377.476 44.5938 376.328 43.832 375.344 42.8711C374.383 41.8867 373.621 40.7383 373.058 39.4258C372.496 38.1133 372.215 36.707 372.215 35.207C372.215 33.707 372.496 32.3008 373.058 30.9883C373.621 29.6758 374.383 28.5391 375.344 27.5781C376.328 26.5938 377.476 25.8203 378.789 25.2578C380.101 24.6953 381.508 24.4141 383.008 24.4141H411.836V31.5859H383.008C382 31.5859 381.144 31.9375 380.441 32.6406C379.762 33.3203 379.422 34.1758 379.422 35.207C379.422 36.2148 379.762 37.0703 380.441 37.7734C381.144 38.4531 382 38.793 383.008 38.793H402.836C404.57 38.793 406.199 39.1211 407.723 39.7773C409.269 40.4336 410.605 41.3359 411.73 42.4844C412.879 43.6328 413.781 44.9688 414.437 46.4922C415.094 48.0156 415.422 49.6562 415.422 51.4141Z" fill="#1E1E1E"/>
</g>
<defs>
<clipPath id="clip0_145_307">
<rect width="473" height="84" fill="white"/>
</clipPath>
</defs>
</svg>
