<svg width="473" height="84" viewBox="0 0 473 84" fill="none" xmlns="http://www.w3.org/2000/svg">
<path d="M5.53 15.5H7.77C16.1233 15.5 22.5633 17.7867 27.09 22.36C31.6633 26.8867 33.95 33.35 33.95 41.75C33.95 46.5567 32.7833 50.9667 30.45 54.98C28.1167 58.9933 24.9433 62.1667 20.93 64.5C16.9633 66.8333 12.5767 68 7.77 68H5.53V15.5ZM8.33 65.83C12.6233 65.83 16.5433 64.78 20.09 62.68C23.6367 60.5333 26.4367 57.6167 28.49 53.93C30.59 50.2433 31.64 46.1833 31.64 41.75C31.64 34.0033 29.61 28.0533 25.55 23.9C21.5367 19.7 15.7967 17.6 8.33 17.6H7.77V65.83H8.33ZM59.7959 66.88C62.2225 66.88 64.5325 66.25 66.7259 64.99C68.9192 63.73 70.7392 62.0033 72.1859 59.81V63.38C70.4592 65.2933 68.5692 66.6933 66.5159 67.58C64.4625 68.42 62.1292 68.84 59.5159 68.84C56.6225 68.84 53.8925 68.07 51.3259 66.53C48.8059 64.99 46.7759 62.9367 45.2359 60.37C43.7425 57.8033 42.9959 55.0733 42.9959 52.18C42.9959 49.0533 43.7425 46.2533 45.2359 43.78C46.7292 41.26 48.7592 39.3 51.3259 37.9C53.9392 36.5 56.8325 35.8 60.0059 35.8C64.8592 35.8 68.9892 37.7133 72.3959 41.54L50.4159 63.24C51.9559 64.5 53.4492 65.4333 54.8959 66.04C56.3425 66.6 57.9759 66.88 59.7959 66.88ZM45.2359 51.97C45.2359 55.8433 46.5192 59.1567 49.0859 61.91L69.5959 41.54C68.0559 40.1867 66.5625 39.23 65.1159 38.67C63.6692 38.0633 61.9425 37.76 59.9359 37.76C57.0892 37.76 54.5459 38.39 52.3059 39.65C50.1125 40.8633 48.3859 42.5433 47.1259 44.69C45.8659 46.8367 45.2359 49.2633 45.2359 51.97ZM89.8275 68.77C87.5875 68.77 85.6042 68.3967 83.8775 67.65C82.1508 66.8567 80.9142 65.8533 80.1675 64.64V60.93C81.0542 62.9367 82.2675 64.43 83.8075 65.41C85.3475 66.3433 87.3075 66.81 89.6875 66.81C91.9742 66.81 93.8175 66.11 95.2175 64.71C96.6175 63.2633 97.3175 61.42 97.3175 59.18C97.3175 57.2667 96.9208 55.7967 96.1275 54.77C95.3342 53.6967 94.0508 52.6233 92.2775 51.55L89.6175 50.01C87.7042 48.8433 86.2575 47.9333 85.2775 47.28C84.3442 46.58 83.5975 45.81 83.0375 44.97C82.4775 44.0833 82.1975 43.0567 82.1975 41.89C82.1975 40.0233 82.8508 38.53 84.1575 37.41C85.4642 36.29 87.1675 35.73 89.2675 35.73C91.8342 35.73 93.9808 36.3133 95.7075 37.48V40.56C94.2608 38.6467 92.1842 37.69 89.4775 37.69C87.9842 37.69 86.7708 38.0633 85.8375 38.81C84.9042 39.5567 84.4375 40.5133 84.4375 41.68C84.4375 42.7067 84.7175 43.6167 85.2775 44.41C85.8375 45.1567 86.6075 45.8567 87.5875 46.51C88.6142 47.1633 90.2942 48.1433 92.6275 49.45C95.0075 50.8033 96.7575 52.2033 97.8775 53.65C98.9975 55.05 99.5575 56.8933 99.5575 59.18C99.5575 62.0733 98.6008 64.4067 96.6875 66.18C94.8208 67.9067 92.5342 68.77 89.8275 68.77ZM112.063 29.29C111.41 29.29 110.827 29.0567 110.313 28.59C109.847 28.1233 109.613 27.54 109.613 26.84C109.613 26.1867 109.847 25.6267 110.313 25.16C110.827 24.6933 111.41 24.46 112.063 24.46C112.717 24.46 113.277 24.6933 113.743 25.16C114.257 25.6267 114.513 26.1867 114.513 26.84C114.513 27.54 114.257 28.1233 113.743 28.59C113.277 29.0567 112.717 29.29 112.063 29.29ZM110.943 36.5H113.183V68H110.943V36.5ZM141.611 82.56C138.951 82.56 136.361 81.9533 133.841 80.74C131.321 79.5267 129.361 77.94 127.961 75.98V72.76C129.174 75 131.064 76.8667 133.631 78.36C136.244 79.8533 138.904 80.6 141.611 80.6C146.091 80.6 149.544 79.27 151.971 76.61C154.397 73.9967 155.611 70.1467 155.611 65.06V60.37C154.351 62.89 152.367 64.9433 149.661 66.53C147.001 68.07 144.201 68.84 141.261 68.84C138.274 68.84 135.497 68.0933 132.931 66.6C130.364 65.1067 128.334 63.1 126.841 60.58C125.347 58.0133 124.601 55.26 124.601 52.32C124.601 49.38 125.347 46.65 126.841 44.13C128.334 41.5633 130.364 39.5333 132.931 38.04C135.497 36.5467 138.274 35.8 141.261 35.8C144.341 35.8 147.187 36.57 149.801 38.11C152.414 39.65 154.351 41.7267 155.611 44.34V36.5H157.851V65.06C157.851 70.8 156.451 75.14 153.651 78.08C150.897 81.0667 146.884 82.56 141.611 82.56ZM141.401 66.88C143.967 66.88 146.347 66.2267 148.541 64.92C150.734 63.5667 152.461 61.7933 153.721 59.6C155.027 57.36 155.681 54.9333 155.681 52.32C155.681 49.7067 155.027 47.3033 153.721 45.11C152.461 42.87 150.734 41.0967 148.541 39.79C146.347 38.4367 143.967 37.76 141.401 37.76C138.787 37.76 136.361 38.4367 134.121 39.79C131.927 41.0967 130.154 42.87 128.801 45.11C127.494 47.3033 126.841 49.7067 126.841 52.32C126.841 54.9333 127.494 57.36 128.801 59.6C130.154 61.7933 131.927 63.5667 134.121 64.92C136.361 66.2267 138.787 66.88 141.401 66.88ZM169.484 36.5H171.724V43.5C172.751 41.1667 174.501 39.3 176.974 37.9C179.448 36.4533 182.178 35.73 185.164 35.73C189.038 35.73 192.094 36.9667 194.334 39.44C196.621 41.8667 197.764 45.2733 197.764 49.66V68H195.524V49.66C195.524 45.88 194.591 42.94 192.724 40.84C190.904 38.74 188.338 37.69 185.024 37.69C182.598 37.69 180.358 38.25 178.304 39.37C176.298 40.4433 174.688 41.9367 173.474 43.85C172.308 45.7633 171.724 47.9333 171.724 50.36V68H169.484V36.5Z" fill="#1E1E1E"/>
</svg>
