<svg width="42" height="42" viewBox="0 0 42 42" fill="none" xmlns="http://www.w3.org/2000/svg">
<g clip-path="url(#clip0_159_626)">
<path fill-rule="evenodd" clip-rule="evenodd" d="M2.07593 15.3192C5.34802 15.3941 10.2666 14.7498 14.4092 12.5243C17.2063 11.0217 19.6685 8.78031 20.9999 5.57257C22.3314 8.78031 24.7936 11.0217 27.5907 12.5243C31.7333 14.7498 36.6519 15.3941 39.924 15.3192L39.8759 13.2198C36.8481 13.289 32.3168 12.6794 28.5845 10.6744C24.907 8.69882 22.0502 5.41041 22.0502 -9.75165e-05L19.9502 -9.77919e-05L19.9497 -9.11162e-05C19.9497 5.41041 17.0929 8.69882 13.4154 10.6744C9.68311 12.6794 5.15178 13.289 2.12396 13.2198L2.07593 15.3192Z" fill="white"/>
<path d="M20.9995 0L20.907 41.9909" stroke="white" stroke-width="2.1"/>
</g>
<defs>
<clipPath id="clip0_159_626">
<rect width="42" height="42" fill="white" transform="translate(42) rotate(90)"/>
</clipPath>
</defs>
</svg>
