<svg width="1440" height="93" viewBox="0 0 1440 93" fill="none" xmlns="http://www.w3.org/2000/svg">
<path d="M-356.807 61.0597H-358.807V63.0735L-356.793 63.0596L-356.807 61.0597ZM-326.057 60.4191L-324.119 60.9131L-323.455 58.3077L-326.142 58.4208L-326.057 60.4191ZM-327.082 66.697L-329.078 66.5696L-327.082 66.697ZM-327.275 74V76H-325.275V74H-327.275ZM-372.438 74L-374.436 73.9176L-374.522 76H-372.438V74ZM-372.438 27.4917V25.4917H-374.522L-374.436 27.5741L-372.438 27.4917ZM-356.807 27.4917H-354.807V25.4917H-356.807V27.4917ZM-356.793 63.0596C-344.395 62.9741 -334.12 62.7603 -325.973 62.4173L-326.142 58.4208C-334.224 58.7611 -344.448 58.9744 -356.82 59.0597L-356.793 63.0596ZM-327.995 59.9251C-328.578 62.2095 -328.941 64.4252 -329.078 66.5696L-325.086 66.8244C-324.967 64.9544 -324.647 62.9848 -324.119 60.9131L-327.995 59.9251ZM-329.078 66.5696C-329.21 68.6328 -329.275 71.1122 -329.275 74H-325.275C-325.275 71.165 -325.211 68.7758 -325.086 66.8244L-329.078 66.5696ZM-327.275 72H-372.438V76H-327.275V72ZM-370.439 74.0824C-370.097 65.7737 -369.925 57.9946 -369.925 50.7459H-373.925C-373.925 57.9322 -374.095 65.6559 -374.436 73.9176L-370.439 74.0824ZM-369.925 50.7459C-369.925 43.4972 -370.097 35.7181 -370.439 27.4093L-374.436 27.5741C-374.095 35.8358 -373.925 43.5595 -373.925 50.7459H-369.925ZM-372.438 29.4917H-356.807V25.4917H-372.438V29.4917ZM-358.807 27.4917V61.0597H-354.807V27.4917H-358.807ZM-296.706 57.9848V55.9848H-299.102L-298.674 58.3425L-296.706 57.9848ZM-294.208 62.5971L-295.548 64.0814L-295.523 64.104L-295.497 64.1257L-294.208 62.5971ZM-283.381 63.3018L-282.587 65.1375L-282.567 65.1286L-282.546 65.1192L-283.381 63.3018ZM-279.602 60.2909L-278.718 58.4968L-280.223 57.7557L-281.214 59.1082L-279.602 60.2909ZM-268.199 64.8393L-266.37 65.6491L-265.487 63.6539L-267.551 62.9471L-268.199 64.8393ZM-275.438 72.0141L-274.534 73.7986L-274.526 73.7942L-275.438 72.0141ZM-305.162 69.6439L-306.558 71.0756L-306.549 71.0844L-306.54 71.093L-305.162 69.6439ZM-305.162 43.3788L-303.775 44.8195L-305.162 43.3788ZM-277.68 40.5602L-278.506 42.3817L-277.68 40.5602ZM-270.313 46.646L-271.985 47.7427L-271.981 47.749L-271.977 47.7554L-270.313 46.646ZM-267.879 57.9848V59.9848H-266.163L-265.902 58.2889L-267.879 57.9848ZM-293.375 49.2725L-292.354 50.9922L-293.375 49.2725ZM-296.258 52.6036L-298.118 51.8706L-299.195 54.6036H-296.258V52.6036ZM-281.139 52.6036V54.6036H-278.253L-279.266 51.9014L-281.139 52.6036ZM-283.638 49.3365L-284.828 50.9436L-284.808 50.9581L-284.789 50.9721L-283.638 49.3365ZM-275.822 55.9848H-296.706V59.9848H-275.822V55.9848ZM-298.674 58.3425C-298.259 60.6233 -297.224 62.5681 -295.548 64.0814L-292.867 61.1129C-293.839 60.2346 -294.47 59.1044 -294.738 57.627L-298.674 58.3425ZM-295.497 64.1257C-293.652 65.6825 -291.21 66.3268 -288.442 66.3268V62.3268C-290.628 62.3268 -292.03 61.818 -292.918 61.0686L-295.497 64.1257ZM-288.442 66.3268C-286.387 66.3268 -284.429 65.9338 -282.587 65.1375L-284.175 61.4661C-285.494 62.0365 -286.91 62.3268 -288.442 62.3268V66.3268ZM-282.546 65.1192C-280.687 64.2649 -279.148 63.0545 -277.989 61.4737L-281.214 59.1082C-281.934 60.0898 -282.915 60.8867 -284.216 61.4845L-282.546 65.1192ZM-280.485 62.0851C-277.517 63.5471 -273.628 65.0946 -268.847 66.7315L-267.551 62.9471C-272.251 61.3382 -275.963 59.8535 -278.718 58.4968L-280.485 62.0851ZM-270.028 64.0294C-271.13 66.5195 -273.169 68.6051 -276.349 70.234L-274.526 73.7942C-270.702 71.8357 -267.915 69.1381 -266.37 65.6491L-270.028 64.0294ZM-276.341 70.2297C-279.424 71.7903 -283.609 72.6406 -289.019 72.6406V76.6406C-283.239 76.6406 -278.37 75.7399 -274.534 73.7985L-276.341 70.2297ZM-289.019 72.6406C-296.018 72.6406 -300.803 71.0299 -303.784 68.1947L-306.54 71.093C-302.517 74.9202 -296.539 76.6406 -289.019 76.6406V72.6406ZM-303.766 68.2121C-306.787 65.2654 -308.351 61.3881 -308.351 56.3832H-312.351C-312.351 62.3114 -310.456 67.2745 -306.558 71.0756L-303.766 68.2121ZM-308.351 56.3832C-308.351 51.5215 -306.797 47.7297 -303.775 44.8195L-306.549 41.9382C-310.446 45.6904 -312.351 50.5681 -312.351 56.3832H-308.351ZM-303.775 44.8195C-300.842 41.9957 -296.067 40.3821 -289.019 40.3821V36.3821C-296.576 36.3821 -302.563 38.0997 -306.549 41.9382L-303.775 44.8195ZM-289.019 40.3821C-284.881 40.3821 -281.395 41.0718 -278.506 42.3817L-276.854 38.7386C-280.371 37.1444 -284.444 36.3821 -289.019 36.3821V40.3821ZM-278.506 42.3817C-275.602 43.698 -273.46 45.494 -271.985 47.7427L-268.64 45.5492C-270.582 42.5876 -273.352 40.3264 -276.854 38.7386L-278.506 42.3817ZM-271.977 47.7554C-270.506 49.9623 -269.75 52.5163 -269.75 55.4864H-265.75C-265.75 51.7941 -266.703 48.4545 -268.649 45.5366L-271.977 47.7554ZM-269.75 55.4864C-269.75 56.573 -269.794 57.2815 -269.855 57.6806L-265.902 58.2889C-265.792 57.5776 -265.75 56.6205 -265.75 55.4864H-269.75ZM-267.879 55.9848H-275.822V59.9848H-267.879V55.9848ZM-288.122 46.0553C-290.497 46.0553 -292.632 46.5052 -294.396 47.5528L-292.354 50.9922C-291.385 50.4168 -290.017 50.0553 -288.122 50.0553V46.0553ZM-294.396 47.5527C-296.124 48.5788 -297.392 50.027 -298.118 51.8706L-294.397 53.3367C-294.013 52.3616 -293.359 51.589 -292.354 50.9922L-294.396 47.5527ZM-296.258 54.6036H-281.139V50.6036H-296.258V54.6036ZM-279.266 51.9014C-279.915 50.1722 -280.992 48.7523 -282.487 47.7009L-284.789 50.9721C-283.976 51.5436 -283.388 52.3018 -283.012 53.3059L-279.266 51.9014ZM-282.447 47.7294C-284.03 46.5566 -285.977 46.0553 -288.122 46.0553V50.0553C-286.593 50.0553 -285.551 50.4081 -284.828 50.9436L-282.447 47.7294ZM-221.78 50.4896L-221.91 52.4854L-219.78 52.6243V50.4896H-221.78ZM-232.542 49.9131L-232.463 47.9146L-234.522 47.8333L-234.542 49.8942L-232.542 49.9131ZM-232.606 56.7035L-234.606 56.6847L-234.606 56.6941V56.7035H-232.606ZM-231.133 62.1487L-232.739 63.3404L-232.717 63.3697L-232.694 63.3981L-231.133 62.1487ZM-222.933 63.8143L-220.944 64.0293L-220.654 61.3443L-223.307 61.8496L-222.933 63.8143ZM-223.061 73.8719L-222.703 75.8396L-221.008 75.5314L-221.062 73.8094L-223.061 73.8719ZM-243.432 71.0532L-244.962 72.3415L-244.95 72.3559L-244.937 72.3702L-243.432 71.0532ZM-246.507 60.9316L-248.507 60.9197V60.9316H-246.507ZM-246.443 50.1053L-244.443 50.1171L-244.431 48.0178L-246.528 48.1071L-246.443 50.1053ZM-252.721 50.4896H-254.721V52.6526L-252.565 52.4835L-252.721 50.4896ZM-252.721 39.1508V37.1508H-254.721V39.1508H-252.721ZM-247.084 37.0368L-245.732 38.5111L-247.084 37.0368ZM-244.329 31.976V29.976H-246.048L-246.306 31.6751L-244.329 31.976ZM-226.905 31.976L-225.288 33.1537L-222.973 29.976H-226.905V31.976ZM-234.143 39.1508L-235.265 37.495L-240.662 41.1508H-234.143V39.1508ZM-221.78 39.1508H-219.78V37.1508H-221.78V39.1508ZM-221.649 48.4939C-225.592 48.2367 -229.197 48.0435 -232.463 47.9146L-232.621 51.9115C-229.395 52.0388 -225.825 52.23 -221.91 52.4854L-221.649 48.4939ZM-234.542 49.8942L-234.606 56.6847L-230.606 56.7224L-230.542 49.9319L-234.542 49.8942ZM-234.606 56.7035C-234.606 59.272 -234.061 61.5583 -232.739 63.3404L-229.526 60.957C-230.169 60.0913 -230.606 58.7474 -230.606 56.7035H-234.606ZM-232.694 63.3981C-231.117 65.3694 -228.577 66.0705 -225.751 66.0705V62.0705C-228.05 62.0705 -229.098 61.4904 -229.571 60.8993L-232.694 63.3981ZM-225.751 66.0705C-224.653 66.0705 -223.588 65.975 -222.559 65.779L-223.307 61.8496C-224.072 61.9953 -224.885 62.0705 -225.751 62.0705V66.0705ZM-224.921 63.5993C-225.1 65.2524 -225.189 66.9257 -225.189 68.6189H-221.189C-221.189 67.0663 -221.107 65.5366 -220.944 64.0293L-224.921 63.5993ZM-225.189 68.6189C-225.189 69.4253 -225.145 71.2102 -225.06 73.9343L-221.062 73.8094C-221.148 71.067 -221.189 69.35 -221.189 68.6189H-225.189ZM-223.419 71.9041C-225.255 72.2381 -226.755 72.4383 -227.934 72.5169L-227.668 76.5081C-226.285 76.4158 -224.624 76.189 -222.703 75.8396L-223.419 71.9041ZM-227.934 72.5169C-229.153 72.5982 -230.77 72.6406 -232.798 72.6406V76.6406C-230.727 76.6406 -229.012 76.5976 -227.668 76.5081L-227.934 72.5169ZM-232.798 72.6406C-237.545 72.6406 -240.386 71.4969 -241.927 69.7362L-244.937 72.3702C-242.293 75.3927 -238.045 76.6406 -232.798 76.6406V72.6406ZM-241.902 69.7649C-243.556 67.8016 -244.507 64.9414 -244.507 60.9316H-248.507C-248.507 65.5486 -247.409 69.4362 -244.962 72.3415L-241.902 69.7649ZM-244.507 60.9434L-244.443 50.1171L-248.443 50.0934L-248.507 60.9197L-244.507 60.9434ZM-246.528 48.1071C-248.561 48.1936 -250.678 48.3232 -252.877 48.4957L-252.565 52.4835C-250.408 52.3144 -248.34 52.1878 -246.358 52.1034L-246.528 48.1071ZM-250.721 50.4896V39.1508H-254.721V50.4896H-250.721ZM-252.721 41.1508C-250.035 41.1508 -247.664 40.2818 -245.732 38.5111L-248.435 35.5625C-249.578 36.6105 -250.965 37.1508 -252.721 37.1508V41.1508ZM-245.732 38.5111C-243.876 36.81 -242.723 34.716 -242.352 32.2769L-246.306 31.6751C-246.533 33.165 -247.216 34.445 -248.435 35.5625L-245.732 38.5111ZM-244.329 33.976H-226.905V29.976H-244.329V33.976ZM-228.521 30.7983C-230.584 33.6298 -232.836 35.8494 -235.265 37.495L-233.022 40.8067C-230.155 38.8648 -227.581 36.3013 -225.288 33.1537L-228.521 30.7983ZM-234.143 41.1508H-221.78V37.1508H-234.143V41.1508ZM-223.78 39.1508V50.4896H-219.78V39.1508H-223.78ZM-195.726 73.1672L-196.264 75.0936L-196.251 75.0973L-196.238 75.1008L-195.726 73.1672ZM-206.104 68.5548L-207.716 67.3711L-208.986 69.1003L-207.172 70.2458L-206.104 68.5548ZM-199.378 59.3941L-198.212 57.769L-199.819 56.616L-200.99 58.2104L-199.378 59.3941ZM-192.267 62.7253L-192.828 64.6449L-192.815 64.6489L-192.801 64.6527L-192.267 62.7253ZM-180.672 63.1096L-179.778 64.8985L-179.763 64.8914L-179.749 64.8841L-180.672 63.1096ZM-183.875 58.8816L-183.993 56.885L-184 56.8855L-183.875 58.8816ZM-185.541 59.0097L-185.74 57.0197L-185.755 57.0212L-185.77 57.0229L-185.541 59.0097ZM-201.684 57.2801L-202.736 58.9813L-202.718 58.9924L-202.699 59.0032L-201.684 57.2801ZM-199.89 41.5211L-198.889 43.2524L-198.881 43.2479L-198.874 43.2433L-199.89 41.5211ZM-174.074 39.8555L-174.626 41.7776L-174.612 41.7817L-174.598 41.7856L-174.074 39.8555ZM-164.913 44.1476L-163.493 45.5557L-161.85 43.8991L-163.738 42.529L-164.913 44.1476ZM-172.28 51.5787L-173.212 53.3485L-171.902 54.0378L-170.86 52.9867L-172.28 51.5787ZM-179.135 48.8881L-179.647 50.8212L-179.624 50.8273L-179.601 50.8329L-179.135 48.8881ZM-189.32 48.9522L-190.297 47.2071L-189.32 48.9522ZM-190.281 52.4114L-191.531 53.9732L-191.495 54.0019L-191.457 54.0289L-190.281 52.4114ZM-185.477 52.7318L-185.613 50.7364L-185.644 50.7386L-185.676 50.7417L-185.477 52.7318ZM-168.18 54.6536L-167.134 52.9492V52.9492L-168.18 54.6536ZM-169.91 71.5657L-168.917 73.3022L-168.91 73.2977L-168.902 73.2932L-169.91 71.5657ZM-184.772 72.6406C-188.175 72.6406 -191.655 72.1749 -195.215 71.2336L-196.238 75.1008C-192.367 76.124 -188.544 76.6406 -184.772 76.6406V72.6406ZM-195.189 71.2408C-198.673 70.2685 -201.954 68.8107 -205.036 66.8638L-207.172 70.2458C-203.763 72.3989 -200.125 74.016 -196.264 75.0936L-195.189 71.2408ZM-204.492 69.7385L-197.766 60.5778L-200.99 58.2104L-207.716 67.3711L-204.492 69.7385ZM-200.544 61.0192C-198.364 62.5831 -195.78 63.7822 -192.828 64.6449L-191.706 60.8056C-194.306 60.0454 -196.463 59.0238 -198.212 57.769L-200.544 61.0192ZM-192.801 64.6527C-189.92 65.4506 -187.339 65.8784 -185.092 65.8784V61.8784C-186.86 61.8784 -189.063 61.5374 -191.733 60.7978L-192.801 64.6527ZM-185.092 65.8784C-183.044 65.8784 -181.208 65.6136 -179.778 64.8985L-181.566 61.3208C-182.186 61.6306 -183.297 61.8784 -185.092 61.8784V65.8784ZM-179.749 64.8841C-178.327 64.1447 -177.07 62.8886 -177.07 60.9956H-181.07C-181.07 60.9969 -181.07 60.9816 -181.063 60.9602C-181.056 60.9396 -181.051 60.938 -181.065 60.957C-181.1 61.0037 -181.234 61.1477 -181.595 61.3352L-179.749 64.8841ZM-177.07 60.9956C-177.07 59.7316 -177.585 58.5846 -178.639 57.7941L-181.039 60.9941C-181.026 61.0044 -181.027 61.0052 -181.036 60.9943C-181.041 60.9891 -181.046 60.9822 -181.051 60.9738C-181.057 60.9654 -181.062 60.9567 -181.066 60.9482C-181.07 60.9397 -181.073 60.9327 -181.074 60.9277C-181.076 60.9228 -181.076 60.9211 -181.076 60.9232C-181.075 60.9273 -181.07 60.9498 -181.07 60.9956H-177.07ZM-178.639 57.7941C-179.612 57.0643 -180.793 56.8175 -181.953 56.8175V60.8175C-181.32 60.8175 -181.091 60.9551 -181.039 60.9941L-178.639 57.7941ZM-181.953 56.8175C-182.557 56.8175 -183.239 56.8407 -183.993 56.8851L-183.758 60.8782C-183.059 60.8371 -182.459 60.8175 -181.953 60.8175V56.8175ZM-184 56.8855C-184.695 56.929 -185.278 56.9735 -185.74 57.0197L-185.342 60.9998C-184.949 60.9606 -184.422 60.9197 -183.75 60.8777L-184 56.8855ZM-185.77 57.0229C-187.911 57.2699 -190.119 57.3941 -192.395 57.3941V61.3941C-189.974 61.3941 -187.612 61.262 -185.311 60.9965L-185.77 57.0229ZM-192.395 57.3941C-195.966 57.3941 -198.678 56.7301 -200.669 55.557L-202.699 59.0032C-199.907 60.6488 -196.427 61.3941 -192.395 61.3941V57.3941ZM-200.632 55.5789C-202.28 54.5605 -203.207 52.9286 -203.207 50.2334H-207.207C-207.207 54.0296 -205.786 57.0956 -202.736 58.9813L-200.632 55.5789ZM-203.207 50.2334C-203.207 47.2636 -201.883 44.9838 -198.889 43.2524L-200.892 39.7898C-204.987 42.1583 -207.207 45.6867 -207.207 50.2334H-203.207ZM-198.874 43.2433C-195.779 41.4166 -190.99 40.3821 -184.259 40.3821V36.3821C-191.28 36.3821 -196.912 37.4402 -200.907 39.7988L-198.874 43.2433ZM-184.259 40.3821C-181.082 40.3821 -177.873 40.8442 -174.626 41.7776L-173.521 37.9334C-177.108 36.9022 -180.689 36.3821 -184.259 36.3821V40.3821ZM-174.598 41.7856C-171.35 42.6677 -168.522 43.9998 -166.088 45.7662L-163.738 42.529C-166.6 40.4517 -169.879 38.9224 -173.549 37.9254L-174.598 41.7856ZM-166.333 42.7395L-173.7 50.1706L-170.86 52.9867L-163.493 45.5557L-166.333 42.7395ZM-171.349 49.8088C-173.895 48.4688 -176.336 47.5029 -178.668 46.9433L-179.601 50.8329C-177.662 51.2983 -175.534 52.1261 -173.212 53.3485L-171.349 49.8088ZM-178.622 46.955C-180.879 46.356 -183.166 46.0553 -185.477 46.0553V50.0553C-183.517 50.0553 -181.575 50.3098 -179.647 50.8212L-178.622 46.955ZM-185.477 46.0553C-187.238 46.0553 -188.872 46.4088 -190.297 47.2071L-188.343 50.6972C-187.633 50.2997 -186.704 50.0553 -185.477 50.0553V46.0553ZM-190.297 47.2071C-191.598 47.9356 -192.922 49.146 -192.922 51.0021H-188.922C-188.922 51.0469 -188.93 51.0936 -188.945 51.1317C-188.958 51.1671 -188.966 51.1711 -188.945 51.1444C-188.894 51.0792 -188.733 50.9158 -188.343 50.6972L-190.297 47.2071ZM-192.922 51.0021C-192.922 52.1429 -192.48 53.2133 -191.531 53.9732L-189.032 50.8497C-189.027 50.8538 -189.011 50.8673 -188.992 50.8919C-188.972 50.9169 -188.954 50.9456 -188.941 50.9753C-188.912 51.0384 -188.922 51.0606 -188.922 51.0021H-192.922ZM-191.457 54.0289C-190.569 54.6754 -189.529 54.9239 -188.487 54.9239V50.9239C-188.898 50.9239 -189.054 50.8308 -189.105 50.794L-191.457 54.0289ZM-188.487 54.9239C-187.663 54.9239 -186.583 54.8524 -185.278 54.7218L-185.676 50.7417C-186.933 50.8674 -187.86 50.9239 -188.487 50.9239V54.9239ZM-185.34 54.7271C-182.231 54.5142 -179.96 54.4114 -178.494 54.4114V50.4114C-180.103 50.4114 -182.486 50.5223 -185.613 50.7364L-185.34 54.7271ZM-178.494 54.4114C-174.234 54.4114 -171.217 55.1357 -169.227 56.3579L-167.134 52.9492C-170.012 51.182 -173.871 50.4114 -178.494 50.4114V54.4114ZM-169.227 56.3579C-167.437 57.4566 -166.529 59.0643 -166.529 61.5081H-162.529C-162.529 57.802 -164.054 54.8401 -167.134 52.9492L-169.227 56.3579ZM-166.529 61.5081C-166.529 65.5041 -168.022 68.1493 -170.917 69.8381L-168.902 73.2932C-164.622 70.7968 -162.529 66.7369 -162.529 61.5081H-166.529ZM-170.902 69.8292C-174.068 71.6384 -178.63 72.6406 -184.772 72.6406V76.6406C-178.272 76.6406 -172.926 75.5929 -168.917 73.3022L-170.902 69.8292ZM-95.8438 47.4788V45.4788H-97.8438V47.4788H-95.8438ZM-68.4897 47.4788H-66.4897V45.4788H-68.4897V47.4788ZM-68.4897 74V76H-66.4897V74H-68.4897ZM-79.7644 74L-81.7505 74.2356L-81.5412 76H-79.7644V74ZM-81.1097 62.6612L-79.1237 62.4256L-83.0169 62.0589L-81.1097 62.6612ZM-87.9643 71.6938L-86.9385 73.4108L-87.9643 71.6938ZM-111.539 71.7579L-112.538 73.4903L-112.529 73.4957L-111.539 71.7579ZM-119.418 63.494L-121.19 64.422L-121.186 64.4302L-121.181 64.4384L-119.418 63.494ZM-115.382 32.8088L-113.988 34.243L-115.382 32.8088ZM-79.5082 28.837L-80.2961 30.6753L-80.2893 30.6782L-79.5082 28.837ZM-68.7459 37.1649L-67.8357 38.9458L-65.6743 37.8411L-67.1721 35.9309L-68.7459 37.1649ZM-80.0207 43.0585L-80.9527 41.289L-80.9755 41.301L-80.9979 41.3135L-80.0207 43.0585ZM-81.6222 43.9554L-83.0364 45.3696L-81.9659 46.4401L-80.645 45.7004L-81.6222 43.9554ZM-87.4518 40.2399L-88.1697 42.1066L-88.154 42.1126L-88.1382 42.1184L-87.4518 40.2399ZM-103.659 42.2257L-102.202 43.5956L-102.195 43.5884L-102.188 43.5811L-103.659 42.2257ZM-103.467 58.4332L-104.867 59.8616L-104.86 59.8685L-104.853 59.8754L-103.467 58.4332ZM-87.9643 60.7394L-88.543 58.8249L-88.5556 58.8288L-87.9643 60.7394ZM-83.3519 57.8566L-81.8699 59.1997L-78.8403 55.8566H-83.3519V57.8566ZM-95.8438 57.8566H-97.8438V59.8566H-95.8438V57.8566ZM-95.8438 49.4788H-68.4897V45.4788H-95.8438V49.4788ZM-70.4897 47.4788V74H-66.4897V47.4788H-70.4897ZM-68.4897 72H-79.7644V76H-68.4897V72ZM-77.7784 73.7644L-79.1237 62.4256L-83.0958 62.8968L-81.7505 74.2356L-77.7784 73.7644ZM-83.0169 62.0589C-84.1682 65.7048 -86.1694 68.2918 -88.99 69.9769L-86.9385 73.4108C-83.1822 71.1667 -80.6137 67.732 -79.2025 63.2635L-83.0169 62.0589ZM-88.99 69.9769C-91.9025 71.7168 -95.5431 72.6406 -100.008 72.6406V76.6406C-94.9913 76.6406 -90.6029 75.5999 -86.9385 73.4108L-88.99 69.9769ZM-100.008 72.6406C-104.013 72.6406 -107.509 71.7515 -110.549 70.02L-112.529 73.4957C-108.821 75.6078 -104.629 76.6406 -100.008 76.6406V72.6406ZM-110.539 70.0255C-113.528 68.301 -115.899 65.8283 -117.655 62.5496L-121.181 64.4384C-119.094 68.3345 -116.211 71.371 -112.538 73.4902L-110.539 70.0255ZM-117.647 62.566C-119.351 59.3125 -120.237 55.4564 -120.237 50.938H-124.237C-124.237 55.9861 -123.244 60.5006 -121.19 64.422L-117.647 62.566ZM-120.237 50.938C-120.237 43.7178 -118.095 38.2341 -113.988 34.243L-116.776 31.3746C-121.809 36.2666 -124.237 42.8691 -124.237 50.938H-120.237ZM-113.988 34.243C-109.945 30.3133 -103.444 28.1464 -94.05 28.1464V24.1464C-103.96 24.1464 -111.68 26.4211 -116.776 31.3746L-113.988 34.243ZM-94.05 28.1464C-88.7561 28.1464 -84.1859 29.0082 -80.2961 30.6753L-78.7204 26.9987C-83.2011 25.0784 -88.3255 24.1464 -94.05 24.1464V28.1464ZM-80.2893 30.6782C-76.3853 32.3344 -73.0666 34.8959 -70.3198 38.399L-67.1721 35.9309C-70.3189 31.9175 -74.1751 28.927 -78.7271 26.9958L-80.2893 30.6782ZM-69.6562 35.3841C-71.5907 36.3728 -75.3597 38.343 -80.9527 41.289L-79.0886 44.8281C-73.4924 41.8804 -69.7448 39.9216 -67.8357 38.9458L-69.6562 35.3841ZM-80.9979 41.3135L-82.5994 42.2104L-80.645 45.7004L-79.0435 44.8036L-80.9979 41.3135ZM-80.208 42.5412C-82.0803 40.6689 -84.2722 39.2723 -86.7654 38.3613L-88.1382 42.1184C-86.1898 42.8303 -84.4953 43.9107 -83.0364 45.3696L-80.208 42.5412ZM-86.7338 38.3732C-89.1931 37.4273 -91.7862 36.9586 -94.4985 36.9586V40.9586C-92.2567 40.9586 -90.152 41.3441 -88.1697 42.1066L-86.7338 38.3732ZM-94.4985 36.9586C-98.9355 36.9586 -102.616 38.1427 -105.13 40.8704L-102.188 43.5811C-100.688 41.9526 -98.2613 40.9586 -94.4985 40.9586V36.9586ZM-105.116 40.8559C-107.501 43.3928 -108.67 46.5436 -108.67 50.1693H-104.67C-104.67 47.4744 -103.832 45.3294 -102.202 43.5956L-105.116 40.8559ZM-108.67 50.1693C-108.67 54.0397 -107.442 57.338 -104.867 59.8616L-102.067 57.0048C-103.763 55.343 -104.67 53.1321 -104.67 50.1693H-108.67ZM-104.853 59.8754C-102.159 62.4637 -98.2551 63.5722 -93.5376 63.5722V59.5722C-97.7032 59.5722 -100.419 58.588 -102.081 56.991L-104.853 59.8754ZM-93.5376 63.5722C-91.42 63.5722 -89.3626 63.2658 -87.3729 62.6499L-88.5556 58.8288C-90.1533 59.3233 -91.8115 59.5722 -93.5376 59.5722V63.5722ZM-87.3855 62.6538C-85.2163 61.998 -83.3621 60.8463 -81.8699 59.1997L-84.8338 56.5136C-85.8186 57.6003 -87.0393 58.3703 -88.543 58.825L-87.3855 62.6538ZM-83.3519 55.8566H-95.8438V59.8566H-83.3519V55.8566ZM-93.8438 57.8566V47.4788H-97.8438V57.8566H-93.8438ZM-43.9579 68.2986L-45.3167 69.7661L-45.3093 69.7729L-43.9579 68.2986ZM-44.0219 32.5525L-45.3808 31.085L-45.3875 31.0913L-44.0219 32.5525ZM-0.716705 32.5525L-2.08234 34.0138L-2.07553 34.0201L-0.716705 32.5525ZM-0.652649 68.2986L0.705627 69.7666L-0.652649 68.2986ZM-12.1196 58.8816L-10.818 60.4001L-10.8091 60.3925L-10.8004 60.3849L-12.1196 58.8816ZM-12.1196 41.9695L-13.4388 43.4728L-12.1196 41.9695ZM-32.555 41.9695L-31.2358 43.4728L-32.555 41.9695ZM-32.555 58.8175L-31.2358 57.3143L-32.555 58.8175ZM-22.3693 72.6406C-31.9193 72.6406 -38.5228 70.5676 -42.6064 66.8243L-45.3093 69.7729C-40.1682 74.4856 -32.3794 76.6406 -22.3693 76.6406V72.6406ZM-42.5991 66.8311C-46.7139 63.021 -48.8765 57.6255 -48.8765 50.3615H-52.8765C-52.8765 58.4722 -50.4267 65.0346 -45.3167 69.7661L-42.5991 66.8311ZM-48.8765 50.3615C-48.8765 43.1849 -46.7361 37.8266 -42.6563 34.0137L-45.3875 31.0913C-50.4471 35.8199 -52.8765 42.3343 -52.8765 50.3615H-48.8765ZM-42.6631 34.0201C-38.5808 30.2402 -31.9606 28.1464 -22.3693 28.1464V24.1464C-32.4234 24.1464 -40.2383 26.3235 -45.3808 31.085L-42.6631 34.0201ZM-22.3693 28.1464C-12.7304 28.1464 -6.1178 30.2423 -2.08234 34.0137L0.648895 31.0913C-4.45499 26.3213 -12.2775 24.1464 -22.3693 24.1464V28.1464ZM-2.07553 34.0201C2.04391 37.8344 4.20187 43.1906 4.20187 50.3615H8.20187C8.20187 42.3285 5.74744 35.8122 0.64209 31.085L-2.07553 34.0201ZM4.20187 50.3615C4.20187 57.6785 2.0545 63.0691 -2.01093 66.8305L0.705627 69.7666C5.77957 65.072 8.20187 58.5045 8.20187 50.3615H4.20187ZM-2.01093 66.8305C-6.0451 70.5631 -12.6808 72.6406 -22.3693 72.6406V76.6406C-12.2417 76.6406 -4.39957 74.4901 0.705627 69.7666L-2.01093 66.8305ZM-22.3693 63.5722C-17.4651 63.5722 -13.4557 62.661 -10.818 60.4001L-13.4211 57.3631C-14.9687 58.6896 -17.7926 59.5722 -22.3693 59.5722V63.5722ZM-10.8004 60.3849C-8.12881 58.0404 -6.98059 54.5526 -6.98059 50.3615H-10.9806C-10.9806 53.8577 -11.925 56.05 -13.4388 57.3784L-10.8004 60.3849ZM-6.98059 50.3615C-6.98059 46.2391 -8.13797 42.8027 -10.8004 40.4663L-13.4388 43.4728C-11.9158 44.8092 -10.9806 46.9674 -10.9806 50.3615H-6.98059ZM-10.8004 40.4663C-13.4395 38.1503 -17.457 37.2149 -22.3693 37.2149V41.2149C-17.8006 41.2149 -14.9849 42.1159 -13.4388 43.4728L-10.8004 40.4663ZM-22.3693 37.2149C-27.2445 37.2149 -31.2375 38.1525 -33.8742 40.4663L-31.2358 43.4728C-29.6872 42.1137 -26.8897 41.2149 -22.3693 41.2149V37.2149ZM-33.8742 40.4663C-36.5366 42.8027 -37.694 46.2391 -37.694 50.3615H-33.694C-33.694 46.9674 -32.7588 44.8092 -31.2358 43.4728L-33.8742 40.4663ZM-37.694 50.3615C-37.694 54.5182 -36.5412 57.9803 -33.8742 60.3208L-31.2358 57.3143C-32.7541 55.9819 -33.694 53.8067 -33.694 50.3615H-37.694ZM-33.8742 60.3208C-31.2375 62.6346 -27.2445 63.5722 -22.3693 63.5722V59.5722C-26.8897 59.5722 -29.6872 58.6733 -31.2358 57.3143L-33.8742 60.3208ZM47.1944 43.2507H45.1944V44.6909L46.5603 45.1476L47.1944 43.2507ZM47.1944 30.3745L47.8727 28.493L45.1944 27.5274V30.3745H47.1944ZM80.9546 42.5461H82.9546V41.1411L81.6329 40.6646L80.9546 42.5461ZM80.9546 59.0097L81.6329 60.8912L82.9546 60.4147V59.0097H80.9546ZM47.1944 71.1813H45.1944V74.0284L47.8727 73.0628L47.1944 71.1813ZM47.1944 58.3051L46.5555 56.4099L45.1944 56.8687V58.3051H47.1944ZM69.6158 50.7459L70.2547 52.6411L75.9 50.7378L70.2498 48.849L69.6158 50.7459ZM49.1944 43.2507V30.3745H45.1944V43.2507H49.1944ZM46.5161 32.2559L80.2762 44.4275L81.6329 40.6646L47.8727 28.493L46.5161 32.2559ZM78.9546 42.5461V59.0097H82.9546V42.5461H78.9546ZM80.2762 57.1283L46.5161 69.2999L47.8727 73.0628L81.6329 60.8912L80.2762 57.1283ZM49.1944 71.1813V58.3051H45.1944V71.1813H49.1944ZM47.8334 60.2002L70.2547 52.6411L68.9768 48.8507L46.5555 56.4099L47.8334 60.2002ZM70.2498 48.849L47.8285 41.3539L46.5603 45.1476L68.9817 52.6427L70.2498 48.849ZM94.7197 43.2507H92.7197V44.6909L94.0856 45.1476L94.7197 43.2507ZM94.7197 30.3745L95.398 28.493L92.7197 27.5274V30.3745H94.7197ZM128.48 42.5461H130.48V41.1411L129.158 40.6646L128.48 42.5461ZM128.48 59.0097L129.158 60.8912L130.48 60.4147V59.0097H128.48ZM94.7197 71.1813H92.7197V74.0284L95.398 73.0628L94.7197 71.1813ZM94.7197 58.3051L94.0807 56.4099L92.7197 56.8687V58.3051H94.7197ZM117.141 50.7459L117.78 52.6411L123.425 50.7378L117.775 48.849L117.141 50.7459ZM96.7197 43.2507V30.3745H92.7197V43.2507H96.7197ZM94.0413 32.2559L127.801 44.4275L129.158 40.6646L95.398 28.493L94.0413 32.2559ZM126.48 42.5461V59.0097H130.48V42.5461H126.48ZM127.801 57.1283L94.0413 69.2999L95.398 73.0628L129.158 60.8912L127.801 57.1283ZM96.7197 71.1813V58.3051H92.7197V71.1813H96.7197ZM95.3586 60.2002L117.78 52.6411L116.502 48.8507L94.0807 56.4099L95.3586 60.2002ZM117.775 48.849L95.3537 41.3539L94.0856 45.1476L116.507 52.6427L117.775 48.849ZM142.245 43.2507H140.245V44.6909L141.611 45.1476L142.245 43.2507ZM142.245 30.3745L142.923 28.493L140.245 27.5274V30.3745H142.245ZM176.005 42.5461H178.005V41.1411L176.683 40.6646L176.005 42.5461ZM176.005 59.0097L176.683 60.8912L178.005 60.4147V59.0097H176.005ZM142.245 71.1813H140.245V74.0284L142.923 73.0628L142.245 71.1813ZM142.245 58.3051L141.606 56.4099L140.245 56.8687V58.3051H142.245ZM164.666 50.7459L165.305 52.6411L170.95 50.7378L165.3 48.849L164.666 50.7459ZM144.245 43.2507V30.3745H140.245V43.2507H144.245ZM141.567 32.2559L175.327 44.4275L176.683 40.6646L142.923 28.493L141.567 32.2559ZM174.005 42.5461V59.0097H178.005V42.5461H174.005ZM175.327 57.1283L141.567 69.2999L142.923 73.0628L176.683 60.8912L175.327 57.1283ZM144.245 71.1813V58.3051H140.245V71.1813H144.245ZM142.884 60.2002L165.305 52.6411L164.027 48.8507L141.606 56.4099L142.884 60.2002ZM165.3 48.849L142.879 41.3539L141.611 45.1476L164.032 52.6427L165.3 48.849Z" fill="white"/>
<path d="M228.825 61.0597H226.825V63.0735L228.839 63.0596L228.825 61.0597ZM259.575 60.4191L261.513 60.9131L262.177 58.3077L259.491 58.4208L259.575 60.4191ZM258.55 66.697L256.554 66.5696L258.55 66.697ZM258.358 74V76H260.358V74H258.358ZM213.195 74L211.196 73.9176L211.11 76H213.195V74ZM213.195 27.4917V25.4917H211.11L211.196 27.5741L213.195 27.4917ZM228.825 27.4917H230.825V25.4917H228.825V27.4917ZM228.839 63.0596C241.237 62.9741 251.512 62.7603 259.659 62.4173L259.491 58.4208C251.408 58.7611 241.184 58.9744 228.812 59.0597L228.839 63.0596ZM257.637 59.9251C257.054 62.2095 256.691 64.4252 256.554 66.5696L260.546 66.8244C260.665 64.9544 260.985 62.9848 261.513 60.9131L257.637 59.9251ZM256.554 66.5696C256.422 68.6328 256.358 71.1122 256.358 74H260.358C260.358 71.165 260.421 68.7758 260.546 66.8244L256.554 66.5696ZM258.358 72H213.195V76H258.358V72ZM215.193 74.0824C215.535 65.7737 215.707 57.9946 215.707 50.7459H211.707C211.707 57.9322 211.537 65.6559 211.196 73.9176L215.193 74.0824ZM215.707 50.7459C215.707 43.4972 215.535 35.7181 215.193 27.4093L211.196 27.5741C211.537 35.8358 211.707 43.5595 211.707 50.7459H215.707ZM213.195 29.4917H228.825V25.4917H213.195V29.4917ZM226.825 27.4917V61.0597H230.825V27.4917H226.825ZM288.926 57.9848V55.9848H286.53L286.958 58.3425L288.926 57.9848ZM291.424 62.5971L290.084 64.0814L290.109 64.104L290.135 64.1257L291.424 62.5971ZM302.251 63.3018L303.045 65.1375L303.065 65.1286L303.086 65.1192L302.251 63.3018ZM306.03 60.2909L306.914 58.4968L305.409 57.7557L304.418 59.1082L306.03 60.2909ZM317.433 64.8393L319.262 65.6491L320.146 63.6539L318.081 62.9471L317.433 64.8393ZM310.194 72.0141L311.098 73.7986L311.106 73.7942L310.194 72.0141ZM280.47 69.6439L279.074 71.0756L279.083 71.0844L279.092 71.093L280.47 69.6439ZM280.47 43.3788L281.857 44.8195L280.47 43.3788ZM307.952 40.5602L307.126 42.3817L307.952 40.5602ZM315.319 46.646L313.647 47.7427L313.651 47.749L313.655 47.7554L315.319 46.646ZM317.754 57.9848V59.9848H319.469L319.73 58.2889L317.754 57.9848ZM292.257 49.2725L293.278 50.9922L292.257 49.2725ZM289.375 52.6036L287.514 51.8706L286.437 54.6036H289.375V52.6036ZM304.493 52.6036V54.6036H307.379L306.366 51.9014L304.493 52.6036ZM301.995 49.3365L300.804 50.9436L300.824 50.9581L300.844 50.9721L301.995 49.3365ZM309.81 55.9848H288.926V59.9848H309.81V55.9848ZM286.958 58.3425C287.373 60.6233 288.408 62.5681 290.084 64.0814L292.765 61.1129C291.793 60.2346 291.162 59.1044 290.894 57.627L286.958 58.3425ZM290.135 64.1257C291.98 65.6825 294.422 66.3268 297.19 66.3268V62.3268C295.004 62.3268 293.602 61.818 292.714 61.0686L290.135 64.1257ZM297.19 66.3268C299.245 66.3268 301.203 65.9338 303.045 65.1375L301.457 61.4661C300.138 62.0365 298.722 62.3268 297.19 62.3268V66.3268ZM303.086 65.1192C304.945 64.2649 306.484 63.0545 307.643 61.4737L304.418 59.1082C303.698 60.0898 302.717 60.8867 301.416 61.4845L303.086 65.1192ZM305.147 62.0851C308.115 63.5471 312.004 65.0946 316.785 66.7315L318.081 62.9471C313.381 61.3382 309.669 59.8535 306.914 58.4968L305.147 62.0851ZM315.605 64.0294C314.502 66.5195 312.463 68.6051 309.283 70.234L311.106 73.7942C314.93 71.8357 317.717 69.1381 319.262 65.6491L315.605 64.0294ZM309.291 70.2297C306.208 71.7903 302.024 72.6406 296.613 72.6406V76.6406C302.393 76.6406 307.262 75.7399 311.098 73.7985L309.291 70.2297ZM296.613 72.6406C289.614 72.6406 284.829 71.0299 281.848 68.1947L279.092 71.093C283.115 74.9202 289.093 76.6406 296.613 76.6406V72.6406ZM281.866 68.2121C278.845 65.2654 277.281 61.3881 277.281 56.3832H273.281C273.281 62.3114 275.176 67.2745 279.074 71.0756L281.866 68.2121ZM277.281 56.3832C277.281 51.5215 278.835 47.7297 281.857 44.8195L279.083 41.9382C275.186 45.6904 273.281 50.5681 273.281 56.3832H277.281ZM281.857 44.8195C284.79 41.9957 289.565 40.3821 296.613 40.3821V36.3821C289.056 36.3821 283.069 38.0997 279.083 41.9382L281.857 44.8195ZM296.613 40.3821C300.751 40.3821 304.237 41.0718 307.126 42.3817L308.778 38.7386C305.261 37.1444 301.188 36.3821 296.613 36.3821V40.3821ZM307.126 42.3817C310.03 43.698 312.172 45.494 313.647 47.7427L316.992 45.5492C315.05 42.5876 312.281 40.3264 308.778 38.7386L307.126 42.3817ZM313.655 47.7554C315.126 49.9623 315.882 52.5163 315.882 55.4864H319.882C319.882 51.7941 318.929 48.4545 316.983 45.5366L313.655 47.7554ZM315.882 55.4864C315.882 56.573 315.838 57.2815 315.777 57.6806L319.73 58.2889C319.84 57.5776 319.882 56.6205 319.882 55.4864H315.882ZM317.754 55.9848H309.81V59.9848H317.754V55.9848ZM297.51 46.0553C295.135 46.0553 293 46.5052 291.236 47.5528L293.278 50.9922C294.247 50.4168 295.615 50.0553 297.51 50.0553V46.0553ZM291.236 47.5527C289.508 48.5788 288.24 50.027 287.514 51.8706L291.235 53.3367C291.619 52.3616 292.273 51.589 293.278 50.9922L291.236 47.5527ZM289.375 54.6036H304.493V50.6036H289.375V54.6036ZM306.366 51.9014C305.717 50.1722 304.64 48.7523 303.146 47.7009L300.844 50.9721C301.656 51.5436 302.244 52.3018 302.62 53.3059L306.366 51.9014ZM303.185 47.7294C301.602 46.5566 299.655 46.0553 297.51 46.0553V50.0553C299.039 50.0553 300.081 50.4081 300.804 50.9436L303.185 47.7294ZM363.852 50.4896L363.722 52.4854L365.852 52.6243V50.4896H363.852ZM353.09 49.9131L353.169 47.9146L351.11 47.8333L351.09 49.8942L353.09 49.9131ZM353.026 56.7035L351.026 56.6847L351.026 56.6941V56.7035H353.026ZM354.5 62.1487L352.893 63.3404L352.915 63.3697L352.938 63.3981L354.5 62.1487ZM362.699 63.8143L364.688 64.0293L364.978 61.3443L362.325 61.8496L362.699 63.8143ZM362.571 73.8719L362.929 75.8396L364.624 75.5314L364.57 73.8094L362.571 73.8719ZM342.2 71.0532L340.67 72.3415L340.682 72.3559L340.695 72.3702L342.2 71.0532ZM339.125 60.9316L337.125 60.9197V60.9316H339.125ZM339.189 50.1053L341.189 50.1171L341.201 48.0178L339.104 48.1071L339.189 50.1053ZM332.911 50.4896H330.911V52.6526L333.067 52.4835L332.911 50.4896ZM332.911 39.1508V37.1508H330.911V39.1508H332.911ZM338.548 37.0368L339.9 38.5111L338.548 37.0368ZM341.303 31.976V29.976H339.584L339.326 31.6751L341.303 31.976ZM358.728 31.976L360.344 33.1537L362.659 29.976H358.728V31.976ZM351.489 39.1508L350.367 37.495L344.97 41.1508H351.489V39.1508ZM363.852 39.1508H365.852V37.1508H363.852V39.1508ZM363.983 48.4939C360.04 48.2367 356.435 48.0435 353.169 47.9146L353.011 51.9115C356.237 52.0388 359.807 52.23 363.722 52.4854L363.983 48.4939ZM351.09 49.8942L351.026 56.6847L355.026 56.7224L355.09 49.9319L351.09 49.8942ZM351.026 56.7035C351.026 59.272 351.571 61.5583 352.893 63.3404L356.106 60.957C355.463 60.0913 355.026 58.7474 355.026 56.7035H351.026ZM352.938 63.3981C354.515 65.3694 357.055 66.0705 359.881 66.0705V62.0705C357.582 62.0705 356.534 61.4904 356.061 60.8993L352.938 63.3981ZM359.881 66.0705C360.979 66.0705 362.044 65.975 363.074 65.779L362.325 61.8496C361.561 61.9953 360.747 62.0705 359.881 62.0705V66.0705ZM360.711 63.5993C360.532 65.2524 360.443 66.9257 360.443 68.6189H364.443C364.443 67.0663 364.525 65.5366 364.688 64.0293L360.711 63.5993ZM360.443 68.6189C360.443 69.4253 360.487 71.2102 360.572 73.9343L364.57 73.8094C364.485 71.067 364.443 69.35 364.443 68.6189H360.443ZM362.213 71.9041C360.377 72.2381 358.877 72.4383 357.698 72.5169L357.964 76.5081C359.347 76.4158 361.008 76.189 362.929 75.8396L362.213 71.9041ZM357.698 72.5169C356.479 72.5982 354.862 72.6406 352.834 72.6406V76.6406C354.906 76.6406 356.62 76.5976 357.964 76.5081L357.698 72.5169ZM352.834 72.6406C348.087 72.6406 345.246 71.4969 343.705 69.7362L340.695 72.3702C343.339 75.3927 347.587 76.6406 352.834 76.6406V72.6406ZM343.73 69.7649C342.076 67.8016 341.125 64.9414 341.125 60.9316H337.125C337.125 65.5486 338.223 69.4362 340.67 72.3415L343.73 69.7649ZM341.125 60.9434L341.189 50.1171L337.189 50.0934L337.125 60.9197L341.125 60.9434ZM339.104 48.1071C337.071 48.1936 334.954 48.3232 332.755 48.4957L333.067 52.4835C335.224 52.3144 337.293 52.1878 339.274 52.1034L339.104 48.1071ZM334.911 50.4896V39.1508H330.911V50.4896H334.911ZM332.911 41.1508C335.597 41.1508 337.968 40.2818 339.9 38.5111L337.197 35.5625C336.054 36.6105 334.667 37.1508 332.911 37.1508V41.1508ZM339.9 38.5111C341.756 36.81 342.909 34.716 343.28 32.2769L339.326 31.6751C339.099 33.165 338.416 34.445 337.197 35.5625L339.9 38.5111ZM341.303 33.976H358.728V29.976H341.303V33.976ZM357.111 30.7983C355.048 33.6298 352.796 35.8494 350.367 37.495L352.61 40.8067C355.477 38.8648 358.051 36.3013 360.344 33.1537L357.111 30.7983ZM351.489 41.1508H363.852V37.1508H351.489V41.1508ZM361.852 39.1508V50.4896H365.852V39.1508H361.852ZM389.906 73.1672L389.368 75.0936L389.381 75.0973L389.395 75.1008L389.906 73.1672ZM379.528 68.5548L377.916 67.3711L376.646 69.1003L378.46 70.2458L379.528 68.5548ZM386.254 59.3941L387.42 57.769L385.813 56.616L384.642 58.2104L386.254 59.3941ZM393.365 62.7253L392.804 64.6449L392.818 64.6489L392.831 64.6527L393.365 62.7253ZM404.96 63.1096L405.855 64.8985L405.869 64.8914L405.883 64.8841L404.96 63.1096ZM401.757 58.8816L401.64 56.885L401.632 56.8855L401.757 58.8816ZM400.091 59.0097L399.892 57.0197L399.877 57.0212L399.862 57.0229L400.091 59.0097ZM383.948 57.2801L382.896 58.9813L382.914 58.9924L382.933 59.0032L383.948 57.2801ZM385.742 41.5211L386.743 43.2524L386.751 43.2479L386.759 43.2433L385.742 41.5211ZM411.558 39.8555L411.006 41.7776L411.02 41.7817L411.034 41.7856L411.558 39.8555ZM420.719 44.1476L422.139 45.5557L423.782 43.8991L421.894 42.529L420.719 44.1476ZM413.352 51.5787L412.421 53.3485L413.73 54.0378L414.772 52.9867L413.352 51.5787ZM406.498 48.8881L405.985 50.8212L406.008 50.8273L406.031 50.8329L406.498 48.8881ZM396.312 48.9522L395.335 47.2071L396.312 48.9522ZM395.351 52.4114L394.102 53.9732L394.137 54.0019L394.175 54.0289L395.351 52.4114ZM400.156 52.7318L400.019 50.7364L399.988 50.7386L399.956 50.7417L400.156 52.7318ZM417.452 54.6536L418.498 52.9492V52.9492L417.452 54.6536ZM415.722 71.5657L416.715 73.3022L416.722 73.2977L416.73 73.2932L415.722 71.5657ZM400.86 72.6406C397.457 72.6406 393.977 72.1749 390.417 71.2336L389.395 75.1008C393.265 76.124 397.088 76.6406 400.86 76.6406V72.6406ZM390.443 71.2408C386.959 70.2685 383.678 68.8107 380.596 66.8638L378.46 70.2458C381.869 72.3989 385.507 74.016 389.368 75.0936L390.443 71.2408ZM381.14 69.7385L387.866 60.5778L384.642 58.2104L377.916 67.3711L381.14 69.7385ZM385.088 61.0192C387.268 62.5831 389.853 63.7822 392.804 64.6449L393.926 60.8056C391.326 60.0454 389.169 59.0238 387.42 57.769L385.088 61.0192ZM392.831 64.6527C395.713 65.4506 398.293 65.8784 400.54 65.8784V61.8784C398.772 61.8784 396.57 61.5374 393.899 60.7978L392.831 64.6527ZM400.54 65.8784C402.588 65.8784 404.424 65.6136 405.855 64.8985L404.066 61.3208C403.446 61.6306 402.335 61.8784 400.54 61.8784V65.8784ZM405.883 64.8841C407.305 64.1447 408.562 62.8886 408.562 60.9956H404.562C404.562 60.9969 404.562 60.9816 404.569 60.9602C404.576 60.9396 404.581 60.938 404.567 60.957C404.532 61.0037 404.398 61.1477 404.037 61.3352L405.883 64.8841ZM408.562 60.9956C408.562 59.7316 408.047 58.5846 406.993 57.7941L404.593 60.9941C404.607 61.0044 404.605 61.0052 404.596 60.9943C404.591 60.9891 404.586 60.9822 404.581 60.9738C404.575 60.9654 404.57 60.9567 404.566 60.9482C404.562 60.9397 404.56 60.9327 404.558 60.9277C404.556 60.9228 404.556 60.9211 404.556 60.9232C404.557 60.9273 404.562 60.9498 404.562 60.9956H408.562ZM406.993 57.7941C406.02 57.0643 404.84 56.8175 403.679 56.8175V60.8175C404.312 60.8175 404.541 60.9551 404.593 60.9941L406.993 57.7941ZM403.679 56.8175C403.075 56.8175 402.394 56.8407 401.64 56.8851L401.874 60.8782C402.573 60.8371 403.173 60.8175 403.679 60.8175V56.8175ZM401.632 56.8855C400.937 56.929 400.354 56.9735 399.892 57.0197L400.29 60.9998C400.683 60.9606 401.211 60.9197 401.882 60.8777L401.632 56.8855ZM399.862 57.0229C397.721 57.2699 395.513 57.3941 393.237 57.3941V61.3941C395.659 61.3941 398.02 61.262 400.321 60.9965L399.862 57.0229ZM393.237 57.3941C389.667 57.3941 386.954 56.7301 384.963 55.557L382.933 59.0032C385.725 60.6488 389.205 61.3941 393.237 61.3941V57.3941ZM385 55.5789C383.352 54.5605 382.425 52.9286 382.425 50.2334H378.425C378.425 54.0296 379.846 57.0956 382.896 58.9813L385 55.5789ZM382.425 50.2334C382.425 47.2636 383.749 44.9838 386.743 43.2524L384.741 39.7898C380.645 42.1583 378.425 45.6867 378.425 50.2334H382.425ZM386.759 43.2433C389.853 41.4166 394.642 40.3821 401.373 40.3821V36.3821C394.352 36.3821 388.72 37.4402 384.725 39.7988L386.759 43.2433ZM401.373 40.3821C404.55 40.3821 407.759 40.8442 411.006 41.7776L412.111 37.9334C408.524 36.9022 404.943 36.3821 401.373 36.3821V40.3821ZM411.034 41.7856C414.282 42.6677 417.111 43.9998 419.544 45.7662L421.894 42.529C419.032 40.4517 415.753 38.9224 412.083 37.9254L411.034 41.7856ZM419.299 42.7395L411.932 50.1706L414.772 52.9867L422.139 45.5557L419.299 42.7395ZM414.284 49.8088C411.737 48.4688 409.296 47.5029 406.964 46.9433L406.031 50.8329C407.97 51.2983 410.098 52.1261 412.421 53.3485L414.284 49.8088ZM407.01 46.955C404.753 46.356 402.466 46.0553 400.156 46.0553V50.0553C402.115 50.0553 404.057 50.3098 405.985 50.8212L407.01 46.955ZM400.156 46.0553C398.394 46.0553 396.76 46.4088 395.335 47.2071L397.289 50.6972C397.999 50.2997 398.928 50.0553 400.156 50.0553V46.0553ZM395.335 47.2071C394.034 47.9356 392.71 49.146 392.71 51.0021H396.71C396.71 51.0469 396.702 51.0936 396.688 51.1317C396.675 51.1671 396.666 51.1711 396.687 51.1444C396.738 51.0792 396.899 50.9158 397.289 50.6972L395.335 47.2071ZM392.71 51.0021C392.71 52.1429 393.152 53.2133 394.102 53.9732L396.6 50.8497C396.605 50.8538 396.621 50.8673 396.64 50.8919C396.66 50.9169 396.678 50.9456 396.691 50.9753C396.72 51.0384 396.71 51.0606 396.71 51.0021H392.71ZM394.175 54.0289C395.064 54.6754 396.103 54.9239 397.145 54.9239V50.9239C396.734 50.9239 396.578 50.8308 396.527 50.794L394.175 54.0289ZM397.145 54.9239C397.969 54.9239 399.049 54.8524 400.355 54.7218L399.956 50.7417C398.699 50.8674 397.772 50.9239 397.145 50.9239V54.9239ZM400.292 54.7271C403.401 54.5142 405.672 54.4114 407.138 54.4114V50.4114C405.529 50.4114 403.146 50.5223 400.019 50.7364L400.292 54.7271ZM407.138 54.4114C411.398 54.4114 414.415 55.1357 416.405 56.3579L418.498 52.9492C415.62 51.182 411.761 50.4114 407.138 50.4114V54.4114ZM416.405 56.3579C418.195 57.4566 419.103 59.0643 419.103 61.5081H423.103C423.103 57.802 421.578 54.8401 418.498 52.9492L416.405 56.3579ZM419.103 61.5081C419.103 65.5041 417.61 68.1493 414.715 69.8381L416.73 73.2932C421.01 70.7968 423.103 66.7369 423.103 61.5081H419.103ZM414.73 69.8292C411.564 71.6384 407.002 72.6406 400.86 72.6406V76.6406C407.36 76.6406 412.706 75.5929 416.715 73.3022L414.73 69.8292ZM489.788 47.4788V45.4788H487.788V47.4788H489.788ZM517.142 47.4788H519.142V45.4788H517.142V47.4788ZM517.142 74V76H519.142V74H517.142ZM505.868 74L503.882 74.2356L504.091 76H505.868V74ZM504.522 62.6612L506.508 62.4256L502.615 62.0589L504.522 62.6612ZM497.668 71.6938L498.694 73.4108L497.668 71.6938ZM474.093 71.7579L473.094 73.4903L473.103 73.4957L474.093 71.7579ZM466.214 63.494L464.442 64.422L464.447 64.4302L464.451 64.4384L466.214 63.494ZM470.25 32.8088L471.644 34.243L470.25 32.8088ZM506.124 28.837L505.336 30.6753L505.343 30.6782L506.124 28.837ZM516.886 37.1649L517.796 38.9458L519.958 37.8411L518.46 35.9309L516.886 37.1649ZM505.611 43.0585L504.679 41.289L504.657 41.301L504.634 41.3135L505.611 43.0585ZM504.01 43.9554L502.596 45.3696L503.666 46.4401L504.987 45.7004L504.01 43.9554ZM498.18 40.2399L497.462 42.1066L497.478 42.1126L497.494 42.1184L498.18 40.2399ZM481.973 42.2257L483.43 43.5956L483.437 43.5884L483.444 43.5811L481.973 42.2257ZM482.165 58.4332L480.765 59.8616L480.772 59.8685L480.779 59.8754L482.165 58.4332ZM497.668 60.7394L497.089 58.8249L497.076 58.8288L497.668 60.7394ZM502.28 57.8566L503.762 59.1997L506.792 55.8566H502.28V57.8566ZM489.788 57.8566H487.788V59.8566H489.788V57.8566ZM489.788 49.4788H517.142V45.4788H489.788V49.4788ZM515.142 47.4788V74H519.142V47.4788H515.142ZM517.142 72H505.868V76H517.142V72ZM507.854 73.7644L506.508 62.4256L502.536 62.8968L503.882 74.2356L507.854 73.7644ZM502.615 62.0589C501.464 65.7048 499.463 68.2918 496.642 69.9769L498.694 73.4108C502.45 71.1667 505.018 67.732 506.43 63.2635L502.615 62.0589ZM496.642 69.9769C493.73 71.7168 490.089 72.6406 485.624 72.6406V76.6406C490.641 76.6406 495.029 75.5999 498.694 73.4108L496.642 69.9769ZM485.624 72.6406C481.619 72.6406 478.123 71.7515 475.083 70.02L473.103 73.4957C476.811 75.6078 481.003 76.6406 485.624 76.6406V72.6406ZM475.093 70.0255C472.104 68.301 469.733 65.8283 467.977 62.5496L464.451 64.4384C466.538 68.3345 469.421 71.371 473.094 73.4902L475.093 70.0255ZM467.986 62.566C466.281 59.3125 465.395 55.4564 465.395 50.938H461.395C461.395 55.9861 462.388 60.5006 464.442 64.422L467.986 62.566ZM465.395 50.938C465.395 43.7178 467.537 38.2341 471.644 34.243L468.856 31.3746C463.823 36.2666 461.395 42.8691 461.395 50.938H465.395ZM471.644 34.243C475.687 30.3133 482.188 28.1464 491.582 28.1464V24.1464C481.672 24.1464 473.952 26.4211 468.856 31.3746L471.644 34.243ZM491.582 28.1464C496.876 28.1464 501.446 29.0082 505.336 30.6753L506.912 26.9987C502.431 25.0784 497.307 24.1464 491.582 24.1464V28.1464ZM505.343 30.6782C509.247 32.3344 512.565 34.8959 515.312 38.399L518.46 35.9309C515.313 31.9175 511.457 28.927 506.905 26.9958L505.343 30.6782ZM515.976 35.3841C514.041 36.3728 510.272 38.343 504.679 41.289L506.543 44.8281C512.14 41.8804 515.887 39.9216 517.796 38.9458L515.976 35.3841ZM504.634 41.3135L503.033 42.2104L504.987 45.7004L506.589 44.8036L504.634 41.3135ZM505.424 42.5412C503.552 40.6689 501.36 39.2723 498.867 38.3613L497.494 42.1184C499.442 42.8303 501.137 43.9107 502.596 45.3696L505.424 42.5412ZM498.898 38.3732C496.439 37.4273 493.846 36.9586 491.134 36.9586V40.9586C493.375 40.9586 495.48 41.3441 497.462 42.1066L498.898 38.3732ZM491.134 36.9586C486.697 36.9586 483.016 38.1427 480.502 40.8704L483.444 43.5811C484.944 41.9526 487.371 40.9586 491.134 40.9586V36.9586ZM480.516 40.8559C478.131 43.3928 476.962 46.5436 476.962 50.1693H480.962C480.962 47.4744 481.8 45.3294 483.43 43.5956L480.516 40.8559ZM476.962 50.1693C476.962 54.0397 478.19 57.338 480.765 59.8616L483.565 57.0048C481.869 55.343 480.962 53.1321 480.962 50.1693H476.962ZM480.779 59.8754C483.473 62.4637 487.377 63.5722 492.095 63.5722V59.5722C487.929 59.5722 485.213 58.588 483.551 56.991L480.779 59.8754ZM492.095 63.5722C494.212 63.5722 496.269 63.2658 498.259 62.6499L497.076 58.8288C495.479 59.3233 493.821 59.5722 492.095 59.5722V63.5722ZM498.247 62.6538C500.416 61.998 502.27 60.8463 503.762 59.1997L500.798 56.5136C499.813 57.6003 498.593 58.3703 497.089 58.825L498.247 62.6538ZM502.28 55.8566H489.788V59.8566H502.28V55.8566ZM491.788 57.8566V47.4788H487.788V57.8566H491.788ZM541.674 68.2986L540.315 69.7661L540.323 69.7729L541.674 68.2986ZM541.61 32.5525L540.251 31.085L540.245 31.0913L541.61 32.5525ZM584.915 32.5525L583.55 34.0138L583.557 34.0201L584.915 32.5525ZM584.979 68.2986L586.338 69.7666L584.979 68.2986ZM573.513 58.8816L574.814 60.4001L574.823 60.3925L574.832 60.3849L573.513 58.8816ZM573.513 41.9695L572.193 43.4728L573.513 41.9695ZM553.077 41.9695L554.396 43.4728L553.077 41.9695ZM553.077 58.8175L554.396 57.3143L553.077 58.8175ZM563.263 72.6406C553.713 72.6406 547.109 70.5676 543.026 66.8243L540.323 69.7729C545.464 74.4856 553.253 76.6406 563.263 76.6406V72.6406ZM543.033 66.8311C538.918 63.021 536.756 57.6255 536.756 50.3615H532.756C532.756 58.4722 535.205 65.0346 540.315 69.7661L543.033 66.8311ZM536.756 50.3615C536.756 43.1849 538.896 37.8266 542.976 34.0137L540.245 31.0913C535.185 35.8199 532.756 42.3343 532.756 50.3615H536.756ZM542.969 34.0201C547.051 30.2402 553.672 28.1464 563.263 28.1464V24.1464C553.209 24.1464 545.394 26.3235 540.251 31.085L542.969 34.0201ZM563.263 28.1464C572.902 28.1464 579.514 30.2423 583.55 34.0137L586.281 31.0913C581.177 26.3213 573.355 24.1464 563.263 24.1464V28.1464ZM583.557 34.0201C587.676 37.8344 589.834 43.1906 589.834 50.3615H593.834C593.834 42.3285 591.38 35.8122 586.274 31.085L583.557 34.0201ZM589.834 50.3615C589.834 57.6785 587.687 63.0691 583.621 66.8305L586.338 69.7666C591.412 65.072 593.834 58.5045 593.834 50.3615H589.834ZM583.621 66.8305C579.587 70.5631 572.951 72.6406 563.263 72.6406V76.6406C573.39 76.6406 581.233 74.4901 586.338 69.7666L583.621 66.8305ZM563.263 63.5722C568.167 63.5722 572.176 62.661 574.814 60.4001L572.211 57.3631C570.663 58.6896 567.84 59.5722 563.263 59.5722V63.5722ZM574.832 60.3849C577.503 58.0404 578.651 54.5526 578.651 50.3615H574.651C574.651 53.8577 573.707 56.05 572.193 57.3784L574.832 60.3849ZM578.651 50.3615C578.651 46.2391 577.494 42.8027 574.832 40.4663L572.193 43.4728C573.716 44.8092 574.651 46.9674 574.651 50.3615H578.651ZM574.832 40.4663C572.193 38.1503 568.175 37.2149 563.263 37.2149V41.2149C567.831 41.2149 570.647 42.1159 572.193 43.4728L574.832 40.4663ZM563.263 37.2149C558.388 37.2149 554.395 38.1525 551.758 40.4663L554.396 43.4728C555.945 42.1137 558.742 41.2149 563.263 41.2149V37.2149ZM551.758 40.4663C549.095 42.8027 547.938 46.2391 547.938 50.3615H551.938C551.938 46.9674 552.873 44.8092 554.396 43.4728L551.758 40.4663ZM547.938 50.3615C547.938 54.5182 549.091 57.9803 551.758 60.3208L554.396 57.3143C552.878 55.9819 551.938 53.8067 551.938 50.3615H547.938ZM551.758 60.3208C554.395 62.6346 558.388 63.5722 563.263 63.5722V59.5722C558.742 59.5722 555.945 58.6733 554.396 57.3143L551.758 60.3208ZM632.827 43.2507H630.827V44.6909L632.192 45.1476L632.827 43.2507ZM632.827 30.3745L633.505 28.493L630.827 27.5274V30.3745H632.827ZM666.587 42.5461H668.587V41.1411L667.265 40.6646L666.587 42.5461ZM666.587 59.0097L667.265 60.8912L668.587 60.4147V59.0097H666.587ZM632.827 71.1813H630.827V74.0284L633.505 73.0628L632.827 71.1813ZM632.827 58.3051L632.188 56.4099L630.827 56.8687V58.3051H632.827ZM655.248 50.7459L655.887 52.6411L661.532 50.7378L655.882 48.849L655.248 50.7459ZM634.827 43.2507V30.3745H630.827V43.2507H634.827ZM632.148 32.2559L665.908 44.4275L667.265 40.6646L633.505 28.493L632.148 32.2559ZM664.587 42.5461V59.0097H668.587V42.5461H664.587ZM665.908 57.1283L632.148 69.2999L633.505 73.0628L667.265 60.8912L665.908 57.1283ZM634.827 71.1813V58.3051H630.827V71.1813H634.827ZM633.465 60.2002L655.887 52.6411L654.609 48.8507L632.188 56.4099L633.465 60.2002ZM655.882 48.849L633.461 41.3539L632.192 45.1476L654.614 52.6427L655.882 48.849ZM680.352 43.2507H678.352V44.6909L679.718 45.1476L680.352 43.2507ZM680.352 30.3745L681.03 28.493L678.352 27.5274V30.3745H680.352ZM714.112 42.5461H716.112V41.1411L714.79 40.6646L714.112 42.5461ZM714.112 59.0097L714.79 60.8912L716.112 60.4147V59.0097H714.112ZM680.352 71.1813H678.352V74.0284L681.03 73.0628L680.352 71.1813ZM680.352 58.3051L679.713 56.4099L678.352 56.8687V58.3051H680.352ZM702.773 50.7459L703.412 52.6411L709.057 50.7378L703.407 48.849L702.773 50.7459ZM682.352 43.2507V30.3745H678.352V43.2507H682.352ZM679.673 32.2559L713.434 44.4275L714.79 40.6646L681.03 28.493L679.673 32.2559ZM712.112 42.5461V59.0097H716.112V42.5461H712.112ZM713.434 57.1283L679.673 69.2999L681.03 73.0628L714.79 60.8912L713.434 57.1283ZM682.352 71.1813V58.3051H678.352V71.1813H682.352ZM680.991 60.2002L703.412 52.6411L702.134 48.8507L679.713 56.4099L680.991 60.2002ZM703.407 48.849L680.986 41.3539L679.718 45.1476L702.139 52.6427L703.407 48.849ZM727.877 43.2507H725.877V44.6909L727.243 45.1476L727.877 43.2507ZM727.877 30.3745L728.555 28.493L725.877 27.5274V30.3745H727.877ZM761.637 42.5461H763.637V41.1411L762.315 40.6646L761.637 42.5461ZM761.637 59.0097L762.315 60.8912L763.637 60.4147V59.0097H761.637ZM727.877 71.1813H725.877V74.0284L728.555 73.0628L727.877 71.1813ZM727.877 58.3051L727.238 56.4099L725.877 56.8687V58.3051H727.877ZM750.298 50.7459L750.937 52.6411L756.582 50.7378L750.932 48.849L750.298 50.7459ZM729.877 43.2507V30.3745H725.877V43.2507H729.877ZM727.199 32.2559L760.959 44.4275L762.315 40.6646L728.555 28.493L727.199 32.2559ZM759.637 42.5461V59.0097H763.637V42.5461H759.637ZM760.959 57.1283L727.199 69.2999L728.555 73.0628L762.315 60.8912L760.959 57.1283ZM729.877 71.1813V58.3051H725.877V71.1813H729.877ZM728.516 60.2002L750.937 52.6411L749.659 48.8507L727.238 56.4099L728.516 60.2002ZM750.932 48.849L728.511 41.3539L727.243 45.1476L749.664 52.6427L750.932 48.849Z" fill="#D7F367"/>
<path d="M814.457 61.0597H812.457V63.0735L814.471 63.0596L814.457 61.0597ZM845.207 60.4191L847.145 60.9131L847.809 58.3077L845.123 58.4208L845.207 60.4191ZM844.182 66.697L842.186 66.5696L844.182 66.697ZM843.99 74V76H845.99V74H843.99ZM798.827 74L796.828 73.9176L796.742 76H798.827V74ZM798.827 27.4917V25.4917H796.742L796.828 27.5741L798.827 27.4917ZM814.457 27.4917H816.457V25.4917H814.457V27.4917ZM814.471 63.0596C826.869 62.9741 837.144 62.7603 845.291 62.4173L845.123 58.4208C837.04 58.7611 826.816 58.9744 814.444 59.0597L814.471 63.0596ZM843.269 59.9251C842.686 62.2095 842.323 64.4252 842.186 66.5696L846.178 66.8244C846.297 64.9544 846.617 62.9848 847.145 60.9131L843.269 59.9251ZM842.186 66.5696C842.054 68.6328 841.99 71.1122 841.99 74H845.99C845.99 71.165 846.053 68.7758 846.178 66.8244L842.186 66.5696ZM843.99 72H798.827V76H843.99V72ZM800.825 74.0824C801.168 65.7737 801.339 57.9946 801.339 50.7459H797.339C797.339 57.9322 797.169 65.6559 796.828 73.9176L800.825 74.0824ZM801.339 50.7459C801.339 43.4972 801.168 35.7181 800.825 27.4093L796.828 27.5741C797.169 35.8358 797.339 43.5595 797.339 50.7459H801.339ZM798.827 29.4917H814.457V25.4917H798.827V29.4917ZM812.457 27.4917V61.0597H816.457V27.4917H812.457ZM874.558 57.9848V55.9848H872.162L872.59 58.3425L874.558 57.9848ZM877.057 62.5971L875.716 64.0814L875.741 64.104L875.767 64.1257L877.057 62.5971ZM887.883 63.3018L888.677 65.1375L888.697 65.1286L888.718 65.1192L887.883 63.3018ZM891.662 60.2909L892.546 58.4968L891.042 57.7557L890.05 59.1082L891.662 60.2909ZM903.065 64.8393L904.894 65.6491L905.778 63.6539L903.713 62.9471L903.065 64.8393ZM895.826 72.0141L896.73 73.7986L896.738 73.7942L895.826 72.0141ZM866.102 69.6439L864.706 71.0756L864.715 71.0844L864.724 71.093L866.102 69.6439ZM866.102 43.3788L867.489 44.8195L866.102 43.3788ZM893.584 40.5602L892.759 42.3817L893.584 40.5602ZM900.951 46.646L899.279 47.7427L899.283 47.749L899.287 47.7554L900.951 46.646ZM903.386 57.9848V59.9848H905.101L905.362 58.2889L903.386 57.9848ZM877.889 49.2725L878.91 50.9922L877.889 49.2725ZM875.007 52.6036L873.146 51.8706L872.069 54.6036H875.007V52.6036ZM890.125 52.6036V54.6036H893.011L891.998 51.9014L890.125 52.6036ZM887.627 49.3365L886.436 50.9436L886.456 50.9581L886.476 50.9721L887.627 49.3365ZM895.442 55.9848H874.558V59.9848H895.442V55.9848ZM872.59 58.3425C873.005 60.6233 874.041 62.5681 875.716 64.0814L878.397 61.1129C877.425 60.2346 876.795 59.1044 876.526 57.627L872.59 58.3425ZM875.767 64.1257C877.612 65.6825 880.054 66.3268 882.822 66.3268V62.3268C880.636 62.3268 879.235 61.818 878.346 61.0686L875.767 64.1257ZM882.822 66.3268C884.877 66.3268 886.835 65.9338 888.677 65.1375L887.089 61.4661C885.77 62.0365 884.354 62.3268 882.822 62.3268V66.3268ZM888.718 65.1192C890.577 64.2649 892.116 63.0545 893.275 61.4737L890.05 59.1082C889.33 60.0898 888.349 60.8867 887.048 61.4845L888.718 65.1192ZM890.779 62.0851C893.747 63.5471 897.636 65.0946 902.418 66.7315L903.713 62.9471C899.013 61.3382 895.301 59.8535 892.546 58.4968L890.779 62.0851ZM901.237 64.0294C900.134 66.5195 898.095 68.6051 894.915 70.234L896.738 73.7942C900.562 71.8357 903.349 69.1381 904.894 65.6491L901.237 64.0294ZM894.923 70.2297C891.84 71.7903 887.656 72.6406 882.246 72.6406V76.6406C888.025 76.6406 892.894 75.7399 896.73 73.7985L894.923 70.2297ZM882.246 72.6406C875.246 72.6406 870.461 71.0299 867.481 68.1947L864.724 71.093C868.747 74.9202 874.725 76.6406 882.246 76.6406V72.6406ZM867.499 68.2121C864.477 65.2654 862.913 61.3881 862.913 56.3832H858.913C858.913 62.3114 860.808 67.2745 864.706 71.0756L867.499 68.2121ZM862.913 56.3832C862.913 51.5215 864.467 47.7297 867.489 44.8195L864.715 41.9382C860.818 45.6904 858.913 50.5681 858.913 56.3832H862.913ZM867.489 44.8195C870.422 41.9957 875.197 40.3821 882.246 40.3821V36.3821C874.688 36.3821 868.701 38.0997 864.715 41.9382L867.489 44.8195ZM882.246 40.3821C886.383 40.3821 889.869 41.0718 892.759 42.3817L894.41 38.7386C890.893 37.1444 886.82 36.3821 882.246 36.3821V40.3821ZM892.759 42.3817C895.662 43.698 897.804 45.494 899.279 47.7427L902.624 45.5492C900.682 42.5876 897.913 40.3264 894.41 38.7386L892.759 42.3817ZM899.287 47.7554C900.758 49.9623 901.514 52.5163 901.514 55.4864H905.514C905.514 51.7941 904.561 48.4545 902.615 45.5366L899.287 47.7554ZM901.514 55.4864C901.514 56.573 901.47 57.2815 901.409 57.6806L905.362 58.2889C905.472 57.5776 905.514 56.6205 905.514 55.4864H901.514ZM903.386 55.9848H895.442V59.9848H903.386V55.9848ZM883.142 46.0553C880.767 46.0553 878.633 46.5052 876.868 47.5528L878.91 50.9922C879.879 50.4168 881.247 50.0553 883.142 50.0553V46.0553ZM876.868 47.5527C875.14 48.5788 873.872 50.027 873.146 51.8706L876.867 53.3367C877.252 52.3616 877.905 51.589 878.91 50.9922L876.868 47.5527ZM875.007 54.6036H890.125V50.6036H875.007V54.6036ZM891.998 51.9014C891.349 50.1722 890.272 48.7523 888.778 47.7009L886.476 50.9721C887.288 51.5436 887.876 52.3018 888.252 53.3059L891.998 51.9014ZM888.817 47.7294C887.234 46.5566 885.287 46.0553 883.142 46.0553V50.0553C884.671 50.0553 885.713 50.4081 886.436 50.9436L888.817 47.7294ZM949.485 50.4896L949.354 52.4854L951.485 52.6243V50.4896H949.485ZM938.722 49.9131L938.801 47.9146L936.742 47.8333L936.722 49.8942L938.722 49.9131ZM938.658 56.7035L936.658 56.6847L936.658 56.6941V56.7035H938.658ZM940.132 62.1487L938.525 63.3404L938.547 63.3697L938.57 63.3981L940.132 62.1487ZM948.331 63.8143L950.32 64.0293L950.61 61.3443L947.957 61.8496L948.331 63.8143ZM948.203 73.8719L948.561 75.8396L950.256 75.5314L950.202 73.8094L948.203 73.8719ZM927.832 71.0532L926.302 72.3415L926.314 72.3559L926.327 72.3702L927.832 71.0532ZM924.757 60.9316L922.757 60.9197V60.9316H924.757ZM924.821 50.1053L926.821 50.1171L926.833 48.0178L924.736 48.1071L924.821 50.1053ZM918.543 50.4896H916.543V52.6526L918.699 52.4835L918.543 50.4896ZM918.543 39.1508V37.1508H916.543V39.1508H918.543ZM924.18 37.0368L925.532 38.5111L924.18 37.0368ZM926.935 31.976V29.976H925.216L924.958 31.6751L926.935 31.976ZM944.36 31.976L945.976 33.1537L948.291 29.976H944.36V31.976ZM937.121 39.1508L935.999 37.495L930.602 41.1508H937.121V39.1508ZM949.485 39.1508H951.485V37.1508H949.485V39.1508ZM949.615 48.4939C945.672 48.2367 942.067 48.0435 938.801 47.9146L938.643 51.9115C941.869 52.0388 945.439 52.23 949.354 52.4854L949.615 48.4939ZM936.722 49.8942L936.658 56.6847L940.658 56.7224L940.722 49.9319L936.722 49.8942ZM936.658 56.7035C936.658 59.272 937.203 61.5583 938.525 63.3404L941.738 60.957C941.095 60.0913 940.658 58.7474 940.658 56.7035H936.658ZM938.57 63.3981C940.147 65.3694 942.687 66.0705 945.513 66.0705V62.0705C943.214 62.0705 942.166 61.4904 941.693 60.8993L938.57 63.3981ZM945.513 66.0705C946.611 66.0705 947.677 65.975 948.706 65.779L947.957 61.8496C947.193 61.9953 946.379 62.0705 945.513 62.0705V66.0705ZM946.343 63.5993C946.164 65.2524 946.075 66.9257 946.075 68.6189H950.075C950.075 67.0663 950.157 65.5366 950.32 64.0293L946.343 63.5993ZM946.075 68.6189C946.075 69.4253 946.119 71.2102 946.204 73.9343L950.202 73.8094C950.117 71.067 950.075 69.35 950.075 68.6189H946.075ZM947.846 71.9041C946.009 72.2381 944.509 72.4383 943.33 72.5169L943.596 76.5081C944.979 76.4158 946.64 76.189 948.561 75.8396L947.846 71.9041ZM943.33 72.5169C942.111 72.5982 940.494 72.6406 938.466 72.6406V76.6406C940.538 76.6406 942.252 76.5976 943.596 76.5081L943.33 72.5169ZM938.466 72.6406C933.719 72.6406 930.878 71.4969 929.337 69.7362L926.327 72.3702C928.971 75.3927 933.219 76.6406 938.466 76.6406V72.6406ZM929.362 69.7649C927.708 67.8016 926.757 64.9414 926.757 60.9316H922.757C922.757 65.5486 923.856 69.4362 926.302 72.3415L929.362 69.7649ZM926.757 60.9434L926.821 50.1171L922.821 50.0934L922.757 60.9197L926.757 60.9434ZM924.736 48.1071C922.703 48.1936 920.586 48.3232 918.387 48.4957L918.699 52.4835C920.856 52.3144 922.925 52.1878 924.906 52.1034L924.736 48.1071ZM920.543 50.4896V39.1508H916.543V50.4896H920.543ZM918.543 41.1508C921.229 41.1508 923.6 40.2818 925.532 38.5111L922.829 35.5625C921.686 36.6105 920.299 37.1508 918.543 37.1508V41.1508ZM925.532 38.5111C927.388 36.81 928.541 34.716 928.912 32.2769L924.958 31.6751C924.731 33.165 924.048 34.445 922.829 35.5625L925.532 38.5111ZM926.935 33.976H944.36V29.976H926.935V33.976ZM942.743 30.7983C940.68 33.6298 938.428 35.8494 935.999 37.495L938.242 40.8067C941.109 38.8648 943.683 36.3013 945.976 33.1537L942.743 30.7983ZM937.121 41.1508H949.485V37.1508H937.121V41.1508ZM947.485 39.1508V50.4896H951.485V39.1508H947.485ZM975.538 73.1672L975 75.0936L975.013 75.0973L975.027 75.1008L975.538 73.1672ZM965.16 68.5548L963.548 67.3711L962.278 69.1003L964.092 70.2458L965.16 68.5548ZM971.886 59.3941L973.052 57.769L971.445 56.616L970.274 58.2104L971.886 59.3941ZM978.997 62.7253L978.436 64.6449L978.45 64.6489L978.463 64.6527L978.997 62.7253ZM990.592 63.1096L991.487 64.8985L991.501 64.8914L991.515 64.8841L990.592 63.1096ZM987.389 58.8816L987.272 56.885L987.264 56.8855L987.389 58.8816ZM985.724 59.0097L985.525 57.0197L985.509 57.0212L985.494 57.0229L985.724 59.0097ZM969.58 57.2801L968.529 58.9813L968.547 58.9924L968.565 59.0032L969.58 57.2801ZM971.374 41.5211L972.375 43.2524L972.383 43.2479L972.391 43.2433L971.374 41.5211ZM997.19 39.8555L996.638 41.7776L996.652 41.7817L996.666 41.7856L997.19 39.8555ZM1006.35 44.1476L1007.77 45.5557L1009.41 43.8991L1007.53 42.529L1006.35 44.1476ZM998.984 51.5787L998.053 53.3485L999.362 54.0378L1000.4 52.9867L998.984 51.5787ZM992.13 48.8881L991.617 50.8212L991.64 50.8273L991.663 50.8329L992.13 48.8881ZM981.944 48.9522L980.967 47.2071L981.944 48.9522ZM980.983 52.4114L979.734 53.9732L979.77 54.0019L979.807 54.0289L980.983 52.4114ZM985.788 52.7318L985.651 50.7364L985.62 50.7386L985.589 50.7417L985.788 52.7318ZM1003.08 54.6536L1004.13 52.9492V52.9492L1003.08 54.6536ZM1001.35 71.5657L1002.35 73.3022L1002.35 73.2977L1002.36 73.2932L1001.35 71.5657ZM986.492 72.6406C983.089 72.6406 979.61 72.1749 976.049 71.2336L975.027 75.1008C978.897 76.124 982.72 76.6406 986.492 76.6406V72.6406ZM976.075 71.2408C972.591 70.2685 969.31 68.8107 966.228 66.8638L964.092 70.2458C967.501 72.3989 971.139 74.016 975 75.0936L976.075 71.2408ZM966.772 69.7385L973.498 60.5778L970.274 58.2104L963.548 67.3711L966.772 69.7385ZM970.721 61.0192C972.901 62.5831 975.485 63.7822 978.436 64.6449L979.558 60.8056C976.958 60.0454 974.801 59.0238 973.052 57.769L970.721 61.0192ZM978.463 64.6527C981.345 65.4506 983.925 65.8784 986.172 65.8784V61.8784C984.405 61.8784 982.202 61.5374 979.531 60.7978L978.463 64.6527ZM986.172 65.8784C988.22 65.8784 990.056 65.6136 991.487 64.8985L989.698 61.3208C989.078 61.6306 987.967 61.8784 986.172 61.8784V65.8784ZM991.515 64.8841C992.937 64.1447 994.194 62.8886 994.194 60.9956H990.194C990.194 60.9969 990.194 60.9816 990.201 60.9602C990.209 60.9396 990.214 60.938 990.199 60.957C990.164 61.0037 990.03 61.1477 989.669 61.3352L991.515 64.8841ZM994.194 60.9956C994.194 59.7316 993.679 58.5846 992.625 57.7941L990.225 60.9941C990.239 61.0044 990.237 61.0052 990.228 60.9943C990.223 60.9891 990.218 60.9822 990.213 60.9738C990.207 60.9654 990.203 60.9567 990.198 60.9482C990.194 60.9397 990.192 60.9327 990.19 60.9277C990.188 60.9228 990.188 60.9211 990.189 60.9232C990.189 60.9273 990.194 60.9498 990.194 60.9956H994.194ZM992.625 57.7941C991.652 57.0643 990.472 56.8175 989.311 56.8175V60.8175C989.944 60.8175 990.173 60.9551 990.225 60.9941L992.625 57.7941ZM989.311 56.8175C988.707 56.8175 988.026 56.8407 987.272 56.8851L987.507 60.8782C988.205 60.8371 988.805 60.8175 989.311 60.8175V56.8175ZM987.264 56.8855C986.569 56.929 985.986 56.9735 985.525 57.0197L985.923 60.9998C986.315 60.9606 986.843 60.9197 987.514 60.8777L987.264 56.8855ZM985.494 57.0229C983.353 57.2699 981.145 57.3941 978.869 57.3941V61.3941C981.291 61.3941 983.652 61.262 985.953 60.9965L985.494 57.0229ZM978.869 57.3941C975.299 57.3941 972.586 56.7301 970.596 55.557L968.565 59.0032C971.357 60.6488 974.837 61.3941 978.869 61.3941V57.3941ZM970.632 55.5789C968.984 54.5605 968.057 52.9286 968.057 50.2334H964.057C964.057 54.0296 965.478 57.0956 968.529 58.9813L970.632 55.5789ZM968.057 50.2334C968.057 47.2636 969.381 44.9838 972.375 43.2524L970.373 39.7898C966.277 42.1583 964.057 45.6867 964.057 50.2334H968.057ZM972.391 43.2433C975.485 41.4166 980.274 40.3821 987.005 40.3821V36.3821C979.984 36.3821 974.352 37.4402 970.357 39.7988L972.391 43.2433ZM987.005 40.3821C990.182 40.3821 993.391 40.8442 996.638 41.7776L997.743 37.9334C994.156 36.9022 990.575 36.3821 987.005 36.3821V40.3821ZM996.666 41.7856C999.914 42.6677 1002.74 43.9998 1005.18 45.7662L1007.53 42.529C1004.66 40.4517 1001.39 38.9224 997.715 37.9254L996.666 41.7856ZM1004.93 42.7395L997.564 50.1706L1000.4 52.9867L1007.77 45.5557L1004.93 42.7395ZM999.916 49.8088C997.37 48.4688 994.928 47.5029 992.596 46.9433L991.663 50.8329C993.602 51.2983 995.73 52.1261 998.053 53.3485L999.916 49.8088ZM992.642 46.955C990.385 46.356 988.098 46.0553 985.788 46.0553V50.0553C987.747 50.0553 989.689 50.3098 991.617 50.8212L992.642 46.955ZM985.788 46.0553C984.026 46.0553 982.392 46.4088 980.967 47.2071L982.921 50.6972C983.631 50.2997 984.56 50.0553 985.788 50.0553V46.0553ZM980.967 47.2071C979.666 47.9356 978.342 49.146 978.342 51.0021H982.342C982.342 51.0469 982.334 51.0936 982.32 51.1317C982.307 51.1671 982.298 51.1711 982.319 51.1444C982.37 51.0792 982.531 50.9158 982.921 50.6972L980.967 47.2071ZM978.342 51.0021C978.342 52.1429 978.784 53.2133 979.734 53.9732L982.232 50.8497C982.237 50.8538 982.253 50.8673 982.273 50.8919C982.292 50.9169 982.31 50.9456 982.323 50.9753C982.352 51.0384 982.342 51.0606 982.342 51.0021H978.342ZM979.807 54.0289C980.696 54.6754 981.735 54.9239 982.777 54.9239V50.9239C982.367 50.9239 982.21 50.8308 982.159 50.794L979.807 54.0289ZM982.777 54.9239C983.601 54.9239 984.681 54.8524 985.987 54.7218L985.589 50.7417C984.331 50.8674 983.404 50.9239 982.777 50.9239V54.9239ZM985.924 54.7271C989.033 54.5142 991.304 54.4114 992.77 54.4114V50.4114C991.161 50.4114 988.778 50.5223 985.651 50.7364L985.924 54.7271ZM992.77 54.4114C997.03 54.4114 1000.05 55.1357 1002.04 56.3579L1004.13 52.9492C1001.25 51.182 997.393 50.4114 992.77 50.4114V54.4114ZM1002.04 56.3579C1003.83 57.4566 1004.74 59.0643 1004.74 61.5081H1008.74C1008.74 57.802 1007.21 54.8401 1004.13 52.9492L1002.04 56.3579ZM1004.74 61.5081C1004.74 65.5041 1003.24 68.1493 1000.35 69.8381L1002.36 73.2932C1006.64 70.7968 1008.74 66.7369 1008.74 61.5081H1004.74ZM1000.36 69.8292C997.196 71.6384 992.634 72.6406 986.492 72.6406V76.6406C992.992 76.6406 998.338 75.5929 1002.35 73.3022L1000.36 69.8292ZM1075.42 47.4788V45.4788H1073.42V47.4788H1075.42ZM1102.77 47.4788H1104.77V45.4788H1102.77V47.4788ZM1102.77 74V76H1104.77V74H1102.77ZM1091.5 74L1089.51 74.2356L1089.72 76H1091.5V74ZM1090.15 62.6612L1092.14 62.4256L1088.25 62.0589L1090.15 62.6612ZM1083.3 71.6938L1084.33 73.4108L1083.3 71.6938ZM1059.73 71.7579L1058.73 73.4903L1058.74 73.4957L1059.73 71.7579ZM1051.85 63.494L1050.07 64.422L1050.08 64.4302L1050.08 64.4384L1051.85 63.494ZM1055.88 32.8088L1057.28 34.243L1055.88 32.8088ZM1091.76 28.837L1090.97 30.6753L1090.97 30.6782L1091.76 28.837ZM1102.52 37.1649L1103.43 38.9458L1105.59 37.8411L1104.09 35.9309L1102.52 37.1649ZM1091.24 43.0585L1090.31 41.289L1090.29 41.301L1090.27 41.3135L1091.24 43.0585ZM1089.64 43.9554L1088.23 45.3696L1089.3 46.4401L1090.62 45.7004L1089.64 43.9554ZM1083.81 40.2399L1083.09 42.1066L1083.11 42.1126L1083.13 42.1184L1083.81 40.2399ZM1067.6 42.2257L1069.06 43.5956L1069.07 43.5884L1069.08 43.5811L1067.6 42.2257ZM1067.8 58.4332L1066.4 59.8616L1066.4 59.8685L1066.41 59.8754L1067.8 58.4332ZM1083.3 60.7394L1082.72 58.8249L1082.71 58.8288L1083.3 60.7394ZM1087.91 57.8566L1089.39 59.1997L1092.42 55.8566H1087.91V57.8566ZM1075.42 57.8566H1073.42V59.8566H1075.42V57.8566ZM1075.42 49.4788H1102.77V45.4788H1075.42V49.4788ZM1100.77 47.4788V74H1104.77V47.4788H1100.77ZM1102.77 72H1091.5V76H1102.77V72ZM1093.49 73.7644L1092.14 62.4256L1088.17 62.8968L1089.51 74.2356L1093.49 73.7644ZM1088.25 62.0589C1087.1 65.7048 1085.09 68.2918 1082.27 69.9769L1084.33 73.4108C1088.08 71.1667 1090.65 67.732 1092.06 63.2635L1088.25 62.0589ZM1082.27 69.9769C1079.36 71.7168 1075.72 72.6406 1071.26 72.6406V76.6406C1076.27 76.6406 1080.66 75.5999 1084.33 73.4108L1082.27 69.9769ZM1071.26 72.6406C1067.25 72.6406 1063.76 71.7515 1060.72 70.02L1058.74 73.4957C1062.44 75.6078 1066.64 76.6406 1071.26 76.6406V72.6406ZM1060.72 70.0255C1057.74 68.301 1055.37 65.8283 1053.61 62.5496L1050.08 64.4384C1052.17 68.3345 1055.05 71.371 1058.73 73.4902L1060.72 70.0255ZM1053.62 62.566C1051.91 59.3125 1051.03 55.4564 1051.03 50.938H1047.03C1047.03 55.9861 1048.02 60.5006 1050.07 64.422L1053.62 62.566ZM1051.03 50.938C1051.03 43.7178 1053.17 38.2341 1057.28 34.243L1054.49 31.3746C1049.45 36.2666 1047.03 42.8691 1047.03 50.938H1051.03ZM1057.28 34.243C1061.32 30.3133 1067.82 28.1464 1077.21 28.1464V24.1464C1067.3 24.1464 1059.58 26.4211 1054.49 31.3746L1057.28 34.243ZM1077.21 28.1464C1082.51 28.1464 1087.08 29.0082 1090.97 30.6753L1092.54 26.9987C1088.06 25.0784 1082.94 24.1464 1077.21 24.1464V28.1464ZM1090.97 30.6782C1094.88 32.3344 1098.2 34.8959 1100.94 38.399L1104.09 35.9309C1100.95 31.9175 1097.09 28.927 1092.54 26.9958L1090.97 30.6782ZM1101.61 35.3841C1099.67 36.3728 1095.9 38.343 1090.31 41.289L1092.18 44.8281C1097.77 41.8804 1101.52 39.9216 1103.43 38.9458L1101.61 35.3841ZM1090.27 41.3135L1088.66 42.2104L1090.62 45.7004L1092.22 44.8036L1090.27 41.3135ZM1091.06 42.5412C1089.18 40.6689 1086.99 39.2723 1084.5 38.3613L1083.13 42.1184C1085.07 42.8303 1086.77 43.9107 1088.23 45.3696L1091.06 42.5412ZM1084.53 38.3732C1082.07 37.4273 1079.48 36.9586 1076.77 36.9586V40.9586C1079.01 40.9586 1081.11 41.3441 1083.09 42.1066L1084.53 38.3732ZM1076.77 36.9586C1072.33 36.9586 1068.65 38.1427 1066.13 40.8704L1069.08 43.5811C1070.58 41.9526 1073 40.9586 1076.77 40.9586V36.9586ZM1066.15 40.8559C1063.76 43.3928 1062.59 46.5436 1062.59 50.1693H1066.59C1066.59 47.4744 1067.43 45.3294 1069.06 43.5956L1066.15 40.8559ZM1062.59 50.1693C1062.59 54.0397 1063.82 57.338 1066.4 59.8616L1069.2 57.0048C1067.5 55.343 1066.59 53.1321 1066.59 50.1693H1062.59ZM1066.41 59.8754C1069.11 62.4637 1073.01 63.5722 1077.73 63.5722V59.5722C1073.56 59.5722 1070.84 58.588 1069.18 56.991L1066.41 59.8754ZM1077.73 63.5722C1079.84 63.5722 1081.9 63.2658 1083.89 62.6499L1082.71 58.8288C1081.11 59.3233 1079.45 59.5722 1077.73 59.5722V63.5722ZM1083.88 62.6538C1086.05 61.998 1087.9 60.8463 1089.39 59.1997L1086.43 56.5136C1085.45 57.6003 1084.22 58.3703 1082.72 58.825L1083.88 62.6538ZM1087.91 55.8566H1075.42V59.8566H1087.91V55.8566ZM1077.42 57.8566V47.4788H1073.42V57.8566H1077.42ZM1127.31 68.2986L1125.95 69.7661L1125.95 69.7729L1127.31 68.2986ZM1127.24 32.5525L1125.88 31.085L1125.88 31.0913L1127.24 32.5525ZM1170.55 32.5525L1169.18 34.0138L1169.19 34.0201L1170.55 32.5525ZM1170.61 68.2986L1171.97 69.7666L1170.61 68.2986ZM1159.14 58.8816L1160.45 60.4001L1160.46 60.3925L1160.46 60.3849L1159.14 58.8816ZM1159.14 41.9695L1157.83 43.4728L1159.14 41.9695ZM1138.71 41.9695L1140.03 43.4728L1138.71 41.9695ZM1138.71 58.8175L1140.03 57.3143L1138.71 58.8175ZM1148.89 72.6406C1139.34 72.6406 1132.74 70.5676 1128.66 66.8243L1125.95 69.7729C1131.1 74.4856 1138.88 76.6406 1148.89 76.6406V72.6406ZM1128.67 66.8311C1124.55 63.021 1122.39 57.6255 1122.39 50.3615H1118.39C1118.39 58.4722 1120.84 65.0346 1125.95 69.7661L1128.67 66.8311ZM1122.39 50.3615C1122.39 43.1849 1124.53 37.8266 1128.61 34.0137L1125.88 31.0913C1120.82 35.8199 1118.39 42.3343 1118.39 50.3615H1122.39ZM1128.6 34.0201C1132.68 30.2402 1139.3 28.1464 1148.89 28.1464V24.1464C1138.84 24.1464 1131.03 26.3235 1125.88 31.085L1128.6 34.0201ZM1148.89 28.1464C1158.53 28.1464 1165.15 30.2423 1169.18 34.0137L1171.91 31.0913C1166.81 26.3213 1158.99 24.1464 1148.89 24.1464V28.1464ZM1169.19 34.0201C1173.31 37.8344 1175.47 43.1906 1175.47 50.3615H1179.47C1179.47 42.3285 1177.01 35.8122 1171.91 31.085L1169.19 34.0201ZM1175.47 50.3615C1175.47 57.6785 1173.32 63.0691 1169.25 66.8305L1171.97 69.7666C1177.04 65.072 1179.47 58.5045 1179.47 50.3615H1175.47ZM1169.25 66.8305C1165.22 70.5631 1158.58 72.6406 1148.89 72.6406V76.6406C1159.02 76.6406 1166.86 74.4901 1171.97 69.7666L1169.25 66.8305ZM1148.89 63.5722C1153.8 63.5722 1157.81 62.661 1160.45 60.4001L1157.84 57.3631C1156.3 58.6896 1153.47 59.5722 1148.89 59.5722V63.5722ZM1160.46 60.3849C1163.14 58.0404 1164.28 54.5526 1164.28 50.3615H1160.28C1160.28 53.8577 1159.34 56.05 1157.83 57.3784L1160.46 60.3849ZM1164.28 50.3615C1164.28 46.2391 1163.13 42.8027 1160.46 40.4663L1157.83 43.4728C1159.35 44.8092 1160.28 46.9674 1160.28 50.3615H1164.28ZM1160.46 40.4663C1157.82 38.1503 1153.81 37.2149 1148.89 37.2149V41.2149C1153.46 41.2149 1156.28 42.1159 1157.83 43.4728L1160.46 40.4663ZM1148.89 37.2149C1144.02 37.2149 1140.03 38.1525 1137.39 40.4663L1140.03 43.4728C1141.58 42.1137 1144.37 41.2149 1148.89 41.2149V37.2149ZM1137.39 40.4663C1134.73 42.8027 1133.57 46.2391 1133.57 50.3615H1137.57C1137.57 46.9674 1138.51 44.8092 1140.03 43.4728L1137.39 40.4663ZM1133.57 50.3615C1133.57 54.5182 1134.72 57.9803 1137.39 60.3208L1140.03 57.3143C1138.51 55.9819 1137.57 53.8067 1137.57 50.3615H1133.57ZM1137.39 60.3208C1140.03 62.6346 1144.02 63.5722 1148.89 63.5722V59.5722C1144.37 59.5722 1141.58 58.6733 1140.03 57.3143L1137.39 60.3208ZM1218.46 43.2507H1216.46V44.6909L1217.82 45.1476L1218.46 43.2507ZM1218.46 30.3745L1219.14 28.493L1216.46 27.5274V30.3745H1218.46ZM1252.22 42.5461H1254.22V41.1411L1252.9 40.6646L1252.22 42.5461ZM1252.22 59.0097L1252.9 60.8912L1254.22 60.4147V59.0097H1252.22ZM1218.46 71.1813H1216.46V74.0284L1219.14 73.0628L1218.46 71.1813ZM1218.46 58.3051L1217.82 56.4099L1216.46 56.8687V58.3051H1218.46ZM1240.88 50.7459L1241.52 52.6411L1247.16 50.7378L1241.51 48.849L1240.88 50.7459ZM1220.46 43.2507V30.3745H1216.46V43.2507H1220.46ZM1217.78 32.2559L1251.54 44.4275L1252.9 40.6646L1219.14 28.493L1217.78 32.2559ZM1250.22 42.5461V59.0097H1254.22V42.5461H1250.22ZM1251.54 57.1283L1217.78 69.2999L1219.14 73.0628L1252.9 60.8912L1251.54 57.1283ZM1220.46 71.1813V58.3051H1216.46V71.1813H1220.46ZM1219.1 60.2002L1241.52 52.6411L1240.24 48.8507L1217.82 56.4099L1219.1 60.2002ZM1241.51 48.849L1219.09 41.3539L1217.82 45.1476L1240.25 52.6427L1241.51 48.849ZM1265.98 43.2507H1263.98V44.6909L1265.35 45.1476L1265.98 43.2507ZM1265.98 30.3745L1266.66 28.493L1263.98 27.5274V30.3745H1265.98ZM1299.74 42.5461H1301.74V41.1411L1300.42 40.6646L1299.74 42.5461ZM1299.74 59.0097L1300.42 60.8912L1301.74 60.4147V59.0097H1299.74ZM1265.98 71.1813H1263.98V74.0284L1266.66 73.0628L1265.98 71.1813ZM1265.98 58.3051L1265.34 56.4099L1263.98 56.8687V58.3051H1265.98ZM1288.41 50.7459L1289.04 52.6411L1294.69 50.7378L1289.04 48.849L1288.41 50.7459ZM1267.98 43.2507V30.3745H1263.98V43.2507H1267.98ZM1265.31 32.2559L1299.07 44.4275L1300.42 40.6646L1266.66 28.493L1265.31 32.2559ZM1297.74 42.5461V59.0097H1301.74V42.5461H1297.74ZM1299.07 57.1283L1265.31 69.2999L1266.66 73.0628L1300.42 60.8912L1299.07 57.1283ZM1267.98 71.1813V58.3051H1263.98V71.1813H1267.98ZM1266.62 60.2002L1289.04 52.6411L1287.77 48.8507L1265.34 56.4099L1266.62 60.2002ZM1289.04 48.849L1266.62 41.3539L1265.35 45.1476L1287.77 52.6427L1289.04 48.849ZM1313.51 43.2507H1311.51V44.6909L1312.87 45.1476L1313.51 43.2507ZM1313.51 30.3745L1314.19 28.493L1311.51 27.5274V30.3745H1313.51ZM1347.27 42.5461H1349.27V41.1411L1347.95 40.6646L1347.27 42.5461ZM1347.27 59.0097L1347.95 60.8912L1349.27 60.4147V59.0097H1347.27ZM1313.51 71.1813H1311.51V74.0284L1314.19 73.0628L1313.51 71.1813ZM1313.51 58.3051L1312.87 56.4099L1311.51 56.8687V58.3051H1313.51ZM1335.93 50.7459L1336.57 52.6411L1342.21 50.7378L1336.56 48.849L1335.93 50.7459ZM1315.51 43.2507V30.3745H1311.51V43.2507H1315.51ZM1312.83 32.2559L1346.59 44.4275L1347.95 40.6646L1314.19 28.493L1312.83 32.2559ZM1345.27 42.5461V59.0097H1349.27V42.5461H1345.27ZM1346.59 57.1283L1312.83 69.2999L1314.19 73.0628L1347.95 60.8912L1346.59 57.1283ZM1315.51 71.1813V58.3051H1311.51V71.1813H1315.51ZM1314.15 60.2002L1336.57 52.6411L1335.29 48.8507L1312.87 56.4099L1314.15 60.2002ZM1336.56 48.849L1314.14 41.3539L1312.87 45.1476L1335.3 52.6427L1336.56 48.849Z" fill="white"/>
<path d="M1400.09 61.0597H1398.09V63.0735L1400.1 63.0596L1400.09 61.0597ZM1430.84 60.4191L1432.78 60.9131L1433.44 58.3077L1430.75 58.4208L1430.84 60.4191ZM1429.81 66.697L1427.82 66.5696L1429.81 66.697ZM1429.62 74V76H1431.62V74H1429.62ZM1384.46 74L1382.46 73.9176L1382.37 76H1384.46V74ZM1384.46 27.4917V25.4917H1382.37L1382.46 27.5741L1384.46 27.4917ZM1400.09 27.4917H1402.09V25.4917H1400.09V27.4917ZM1400.1 63.0596C1412.5 62.9741 1422.78 62.7603 1430.92 62.4173L1430.75 58.4208C1422.67 58.7611 1412.45 58.9744 1400.08 59.0597L1400.1 63.0596ZM1428.9 59.9251C1428.32 62.2095 1427.95 64.4252 1427.82 66.5696L1431.81 66.8244C1431.93 64.9544 1432.25 62.9848 1432.78 60.9131L1428.9 59.9251ZM1427.82 66.5696C1427.69 68.6328 1427.62 71.1122 1427.62 74H1431.62C1431.62 71.165 1431.69 68.7758 1431.81 66.8244L1427.82 66.5696ZM1429.62 72H1384.46V76H1429.62V72ZM1386.46 74.0824C1386.8 65.7737 1386.97 57.9946 1386.97 50.7459H1382.97C1382.97 57.9322 1382.8 65.6559 1382.46 73.9176L1386.46 74.0824ZM1386.97 50.7459C1386.97 43.4972 1386.8 35.7181 1386.46 27.4093L1382.46 27.5741C1382.8 35.8358 1382.97 43.5595 1382.97 50.7459H1386.97ZM1384.46 29.4917H1400.09V25.4917H1384.46V29.4917ZM1398.09 27.4917V61.0597H1402.09V27.4917H1398.09ZM1460.19 57.9848V55.9848H1457.79L1458.22 58.3425L1460.19 57.9848ZM1462.69 62.5971L1461.35 64.0814L1461.37 64.104L1461.4 64.1257L1462.69 62.5971ZM1473.51 63.3018L1474.31 65.1375L1474.33 65.1286L1474.35 65.1192L1473.51 63.3018ZM1477.29 60.2909L1478.18 58.4968L1476.67 57.7557L1475.68 59.1082L1477.29 60.2909ZM1488.7 64.8393L1490.53 65.6491L1491.41 63.6539L1489.34 62.9471L1488.7 64.8393ZM1481.46 72.0141L1482.36 73.7986L1482.37 73.7942L1481.46 72.0141ZM1451.73 69.6439L1450.34 71.0756L1450.35 71.0844L1450.36 71.093L1451.73 69.6439ZM1451.73 43.3788L1453.12 44.8195L1451.73 43.3788ZM1479.22 40.5602L1478.39 42.3817L1479.22 40.5602ZM1486.58 46.646L1484.91 47.7427L1484.91 47.749L1484.92 47.7554L1486.58 46.646ZM1489.02 57.9848V59.9848H1490.73L1490.99 58.2889L1489.02 57.9848ZM1463.52 49.2725L1464.54 50.9922L1463.52 49.2725ZM1460.64 52.6036L1458.78 51.8706L1457.7 54.6036H1460.64V52.6036ZM1475.76 52.6036V54.6036H1478.64L1477.63 51.9014L1475.76 52.6036ZM1473.26 49.3365L1472.07 50.9436L1472.09 50.9581L1472.11 50.9721L1473.26 49.3365ZM1481.07 55.9848H1460.19V59.9848H1481.07V55.9848ZM1458.22 58.3425C1458.64 60.6233 1459.67 62.5681 1461.35 64.0814L1464.03 61.1129C1463.06 60.2346 1462.43 59.1044 1462.16 57.627L1458.22 58.3425ZM1461.4 64.1257C1463.24 65.6825 1465.69 66.3268 1468.45 66.3268V62.3268C1466.27 62.3268 1464.87 61.818 1463.98 61.0686L1461.4 64.1257ZM1468.45 66.3268C1470.51 66.3268 1472.47 65.9338 1474.31 65.1375L1472.72 61.4661C1471.4 62.0365 1469.99 62.3268 1468.45 62.3268V66.3268ZM1474.35 65.1192C1476.21 64.2649 1477.75 63.0545 1478.91 61.4737L1475.68 59.1082C1474.96 60.0898 1473.98 60.8867 1472.68 61.4845L1474.35 65.1192ZM1476.41 62.0851C1479.38 63.5471 1483.27 65.0946 1488.05 66.7315L1489.34 62.9471C1484.65 61.3382 1480.93 59.8535 1478.18 58.4968L1476.41 62.0851ZM1486.87 64.0294C1485.77 66.5195 1483.73 68.6051 1480.55 70.234L1482.37 73.7942C1486.19 71.8357 1488.98 69.1381 1490.53 65.6491L1486.87 64.0294ZM1480.56 70.2297C1477.47 71.7903 1473.29 72.6406 1467.88 72.6406V76.6406C1473.66 76.6406 1478.53 75.7399 1482.36 73.7985L1480.56 70.2297ZM1467.88 72.6406C1460.88 72.6406 1456.09 71.0299 1453.11 68.1947L1450.36 71.093C1454.38 74.9202 1460.36 76.6406 1467.88 76.6406V72.6406ZM1453.13 68.2121C1450.11 65.2654 1448.55 61.3881 1448.55 56.3832H1444.55C1444.55 62.3114 1446.44 67.2745 1450.34 71.0756L1453.13 68.2121ZM1448.55 56.3832C1448.55 51.5215 1450.1 47.7297 1453.12 44.8195L1450.35 41.9382C1446.45 45.6904 1444.55 50.5681 1444.55 56.3832H1448.55ZM1453.12 44.8195C1456.05 41.9957 1460.83 40.3821 1467.88 40.3821V36.3821C1460.32 36.3821 1454.33 38.0997 1450.35 41.9382L1453.12 44.8195ZM1467.88 40.3821C1472.01 40.3821 1475.5 41.0718 1478.39 42.3817L1480.04 38.7386C1476.53 37.1444 1472.45 36.3821 1467.88 36.3821V40.3821ZM1478.39 42.3817C1481.29 43.698 1483.44 45.494 1484.91 47.7427L1488.26 45.5492C1486.31 42.5876 1483.54 40.3264 1480.04 38.7386L1478.39 42.3817ZM1484.92 47.7554C1486.39 49.9623 1487.15 52.5163 1487.15 55.4864H1491.15C1491.15 51.7941 1490.19 48.4545 1488.25 45.5366L1484.92 47.7554ZM1487.15 55.4864C1487.15 56.573 1487.1 57.2815 1487.04 57.6806L1490.99 58.2889C1491.1 57.5776 1491.15 56.6205 1491.15 55.4864H1487.15ZM1489.02 55.9848H1481.07V59.9848H1489.02V55.9848ZM1468.77 46.0553C1466.4 46.0553 1464.26 46.5052 1462.5 47.5528L1464.54 50.9922C1465.51 50.4168 1466.88 50.0553 1468.77 50.0553V46.0553ZM1462.5 47.5527C1460.77 48.5788 1459.5 50.027 1458.78 51.8706L1462.5 53.3367C1462.88 52.3616 1463.54 51.589 1464.54 50.9922L1462.5 47.5527ZM1460.64 54.6036H1475.76V50.6036H1460.64V54.6036ZM1477.63 51.9014C1476.98 50.1722 1475.9 48.7523 1474.41 47.7009L1472.11 50.9721C1472.92 51.5436 1473.51 52.3018 1473.88 53.3059L1477.63 51.9014ZM1474.45 47.7294C1472.87 46.5566 1470.92 46.0553 1468.77 46.0553V50.0553C1470.3 50.0553 1471.35 50.4081 1472.07 50.9436L1474.45 47.7294ZM1535.12 50.4896L1534.99 52.4854L1537.12 52.6243V50.4896H1535.12ZM1524.35 49.9131L1524.43 47.9146L1522.37 47.8333L1522.35 49.8942L1524.35 49.9131ZM1524.29 56.7035L1522.29 56.6847L1522.29 56.6941V56.7035H1524.29ZM1525.76 62.1487L1524.16 63.3404L1524.18 63.3697L1524.2 63.3981L1525.76 62.1487ZM1533.96 63.8143L1535.95 64.0293L1536.24 61.3443L1533.59 61.8496L1533.96 63.8143ZM1533.84 73.8719L1534.19 75.8396L1535.89 75.5314L1535.83 73.8094L1533.84 73.8719ZM1513.46 71.0532L1511.93 72.3415L1511.95 72.3559L1511.96 72.3702L1513.46 71.0532ZM1510.39 60.9316L1508.39 60.9197V60.9316H1510.39ZM1510.45 50.1053L1512.45 50.1171L1512.47 48.0178L1510.37 48.1071L1510.45 50.1053ZM1504.17 50.4896H1502.17V52.6526L1504.33 52.4835L1504.17 50.4896ZM1504.17 39.1508V37.1508H1502.17V39.1508H1504.17ZM1509.81 37.0368L1511.16 38.5111L1509.81 37.0368ZM1512.57 31.976V29.976H1510.85L1510.59 31.6751L1512.57 31.976ZM1529.99 31.976L1531.61 33.1537L1533.92 29.976H1529.99V31.976ZM1522.75 39.1508L1521.63 37.495L1516.23 41.1508H1522.75V39.1508ZM1535.12 39.1508H1537.12V37.1508H1535.12V39.1508ZM1535.25 48.4939C1531.3 48.2367 1527.7 48.0435 1524.43 47.9146L1524.28 51.9115C1527.5 52.0388 1531.07 52.23 1534.99 52.4854L1535.25 48.4939ZM1522.35 49.8942L1522.29 56.6847L1526.29 56.7224L1526.35 49.9319L1522.35 49.8942ZM1522.29 56.7035C1522.29 59.272 1522.84 61.5583 1524.16 63.3404L1527.37 60.957C1526.73 60.0913 1526.29 58.7474 1526.29 56.7035H1522.29ZM1524.2 63.3981C1525.78 65.3694 1528.32 66.0705 1531.14 66.0705V62.0705C1528.85 62.0705 1527.8 61.4904 1527.33 60.8993L1524.2 63.3981ZM1531.14 66.0705C1532.24 66.0705 1533.31 65.975 1534.34 65.779L1533.59 61.8496C1532.82 61.9953 1532.01 62.0705 1531.14 62.0705V66.0705ZM1531.97 63.5993C1531.8 65.2524 1531.71 66.9257 1531.71 68.6189H1535.71C1535.71 67.0663 1535.79 65.5366 1535.95 64.0293L1531.97 63.5993ZM1531.71 68.6189C1531.71 69.4253 1531.75 71.2102 1531.84 73.9343L1535.83 73.8094C1535.75 71.067 1535.71 69.35 1535.71 68.6189H1531.71ZM1533.48 71.9041C1531.64 72.2381 1530.14 72.4383 1528.96 72.5169L1529.23 76.5081C1530.61 76.4158 1532.27 76.189 1534.19 75.8396L1533.48 71.9041ZM1528.96 72.5169C1527.74 72.5982 1526.13 72.6406 1524.1 72.6406V76.6406C1526.17 76.6406 1527.88 76.5976 1529.23 76.5081L1528.96 72.5169ZM1524.1 72.6406C1519.35 72.6406 1516.51 71.4969 1514.97 69.7362L1511.96 72.3702C1514.6 75.3927 1518.85 76.6406 1524.1 76.6406V72.6406ZM1514.99 69.7649C1513.34 67.8016 1512.39 64.9414 1512.39 60.9316H1508.39C1508.39 65.5486 1509.49 69.4362 1511.93 72.3415L1514.99 69.7649ZM1512.39 60.9434L1512.45 50.1171L1508.45 50.0934L1508.39 60.9197L1512.39 60.9434ZM1510.37 48.1071C1508.33 48.1936 1506.22 48.3232 1504.02 48.4957L1504.33 52.4835C1506.49 52.3144 1508.56 52.1878 1510.54 52.1034L1510.37 48.1071ZM1506.17 50.4896V39.1508H1502.17V50.4896H1506.17ZM1504.17 41.1508C1506.86 41.1508 1509.23 40.2818 1511.16 38.5111L1508.46 35.5625C1507.32 36.6105 1505.93 37.1508 1504.17 37.1508V41.1508ZM1511.16 38.5111C1513.02 36.81 1514.17 34.716 1514.54 32.2769L1510.59 31.6751C1510.36 33.165 1509.68 34.445 1508.46 35.5625L1511.16 38.5111ZM1512.57 33.976H1529.99V29.976H1512.57V33.976ZM1528.38 30.7983C1526.31 33.6298 1524.06 35.8494 1521.63 37.495L1523.87 40.8067C1526.74 38.8648 1529.31 36.3013 1531.61 33.1537L1528.38 30.7983ZM1522.75 41.1508H1535.12V37.1508H1522.75V41.1508ZM1533.12 39.1508V50.4896H1537.12V39.1508H1533.12ZM1561.17 73.1672L1560.63 75.0936L1560.65 75.0973L1560.66 75.1008L1561.17 73.1672ZM1550.79 68.5548L1549.18 67.3711L1547.91 69.1003L1549.72 70.2458L1550.79 68.5548ZM1557.52 59.3941L1558.68 57.769L1557.08 56.616L1555.91 58.2104L1557.52 59.3941ZM1564.63 62.7253L1564.07 64.6449L1564.08 64.6489L1564.1 64.6527L1564.63 62.7253ZM1576.22 63.1096L1577.12 64.8985L1577.13 64.8914L1577.15 64.8841L1576.22 63.1096ZM1573.02 58.8816L1572.9 56.885L1572.9 56.8855L1573.02 58.8816ZM1571.36 59.0097L1571.16 57.0197L1571.14 57.0212L1571.13 57.0229L1571.36 59.0097ZM1555.21 57.2801L1554.16 58.9813L1554.18 58.9924L1554.2 59.0032L1555.21 57.2801ZM1557.01 41.5211L1558.01 43.2524L1558.01 43.2479L1558.02 43.2433L1557.01 41.5211ZM1582.82 39.8555L1582.27 41.7776L1582.28 41.7817L1582.3 41.7856L1582.82 39.8555ZM1591.98 44.1476L1593.4 45.5557L1595.05 43.8991L1593.16 42.529L1591.98 44.1476ZM1584.62 51.5787L1583.68 53.3485L1584.99 54.0378L1586.04 52.9867L1584.62 51.5787ZM1577.76 48.8881L1577.25 50.8212L1577.27 50.8273L1577.29 50.8329L1577.76 48.8881ZM1567.58 48.9522L1566.6 47.2071L1567.58 48.9522ZM1566.61 52.4114L1565.37 53.9732L1565.4 54.0019L1565.44 54.0289L1566.61 52.4114ZM1571.42 52.7318L1571.28 50.7364L1571.25 50.7386L1571.22 50.7417L1571.42 52.7318ZM1588.72 54.6536L1589.76 52.9492V52.9492L1588.72 54.6536ZM1586.99 71.5657L1587.98 73.3022L1587.99 73.2977L1587.99 73.2932L1586.99 71.5657ZM1572.12 72.6406C1568.72 72.6406 1565.24 72.1749 1561.68 71.2336L1560.66 75.1008C1564.53 76.124 1568.35 76.6406 1572.12 76.6406V72.6406ZM1561.71 71.2408C1558.22 70.2685 1554.94 68.8107 1551.86 66.8638L1549.72 70.2458C1553.13 72.3989 1556.77 74.016 1560.63 75.0936L1561.71 71.2408ZM1552.4 69.7385L1559.13 60.5778L1555.91 58.2104L1549.18 67.3711L1552.4 69.7385ZM1556.35 61.0192C1558.53 62.5831 1561.12 63.7822 1564.07 64.6449L1565.19 60.8056C1562.59 60.0454 1560.43 59.0238 1558.68 57.769L1556.35 61.0192ZM1564.1 64.6527C1566.98 65.4506 1569.56 65.8784 1571.8 65.8784V61.8784C1570.04 61.8784 1567.83 61.5374 1565.16 60.7978L1564.1 64.6527ZM1571.8 65.8784C1573.85 65.8784 1575.69 65.6136 1577.12 64.8985L1575.33 61.3208C1574.71 61.6306 1573.6 61.8784 1571.8 61.8784V65.8784ZM1577.15 64.8841C1578.57 64.1447 1579.83 62.8886 1579.83 60.9956H1575.83C1575.83 60.9969 1575.83 60.9816 1575.83 60.9602C1575.84 60.9396 1575.85 60.938 1575.83 60.957C1575.8 61.0037 1575.66 61.1477 1575.3 61.3352L1577.15 64.8841ZM1579.83 60.9956C1579.83 59.7316 1579.31 58.5846 1578.26 57.7941L1575.86 60.9941C1575.87 61.0044 1575.87 61.0052 1575.86 60.9943C1575.86 60.9891 1575.85 60.9822 1575.84 60.9738C1575.84 60.9654 1575.83 60.9567 1575.83 60.9482C1575.83 60.9397 1575.82 60.9327 1575.82 60.9277C1575.82 60.9228 1575.82 60.9211 1575.82 60.9232C1575.82 60.9273 1575.83 60.9498 1575.83 60.9956H1579.83ZM1578.26 57.7941C1577.28 57.0643 1576.1 56.8175 1574.94 56.8175V60.8175C1575.58 60.8175 1575.8 60.9551 1575.86 60.9941L1578.26 57.7941ZM1574.94 56.8175C1574.34 56.8175 1573.66 56.8407 1572.9 56.8851L1573.14 60.8782C1573.84 60.8371 1574.44 60.8175 1574.94 60.8175V56.8175ZM1572.9 56.8855C1572.2 56.929 1571.62 56.9735 1571.16 57.0197L1571.55 60.9998C1571.95 60.9606 1572.47 60.9197 1573.15 60.8777L1572.9 56.8855ZM1571.13 57.0229C1568.99 57.2699 1566.78 57.3941 1564.5 57.3941V61.3941C1566.92 61.3941 1569.28 61.262 1571.58 60.9965L1571.13 57.0229ZM1564.5 57.3941C1560.93 57.3941 1558.22 56.7301 1556.23 55.557L1554.2 59.0032C1556.99 60.6488 1560.47 61.3941 1564.5 61.3941V57.3941ZM1556.26 55.5789C1554.62 54.5605 1553.69 52.9286 1553.69 50.2334H1549.69C1549.69 54.0296 1551.11 57.0956 1554.16 58.9813L1556.26 55.5789ZM1553.69 50.2334C1553.69 47.2636 1555.01 44.9838 1558.01 43.2524L1556 39.7898C1551.91 42.1583 1549.69 45.6867 1549.69 50.2334H1553.69ZM1558.02 43.2433C1561.12 41.4166 1565.91 40.3821 1572.64 40.3821V36.3821C1565.62 36.3821 1559.98 37.4402 1555.99 39.7988L1558.02 43.2433ZM1572.64 40.3821C1575.81 40.3821 1579.02 40.8442 1582.27 41.7776L1583.37 37.9334C1579.79 36.9022 1576.21 36.3821 1572.64 36.3821V40.3821ZM1582.3 41.7856C1585.55 42.6677 1588.37 43.9998 1590.81 45.7662L1593.16 42.529C1590.3 40.4517 1587.02 38.9224 1583.35 37.9254L1582.3 41.7856ZM1590.56 42.7395L1583.2 50.1706L1586.04 52.9867L1593.4 45.5557L1590.56 42.7395ZM1585.55 49.8088C1583 48.4688 1580.56 47.5029 1578.23 46.9433L1577.29 50.8329C1579.23 51.2983 1581.36 52.1261 1583.68 53.3485L1585.55 49.8088ZM1578.27 46.955C1576.02 46.356 1573.73 46.0553 1571.42 46.0553V50.0553C1573.38 50.0553 1575.32 50.3098 1577.25 50.8212L1578.27 46.955ZM1571.42 46.0553C1569.66 46.0553 1568.02 46.4088 1566.6 47.2071L1568.55 50.6972C1569.26 50.2997 1570.19 50.0553 1571.42 50.0553V46.0553ZM1566.6 47.2071C1565.3 47.9356 1563.97 49.146 1563.97 51.0021H1567.97C1567.97 51.0469 1567.97 51.0936 1567.95 51.1317C1567.94 51.1671 1567.93 51.1711 1567.95 51.1444C1568 51.0792 1568.16 50.9158 1568.55 50.6972L1566.6 47.2071ZM1563.97 51.0021C1563.97 52.1429 1564.42 53.2133 1565.37 53.9732L1567.86 50.8497C1567.87 50.8538 1567.88 50.8673 1567.9 50.8919C1567.92 50.9169 1567.94 50.9456 1567.96 50.9753C1567.98 51.0384 1567.97 51.0606 1567.97 51.0021H1563.97ZM1565.44 54.0289C1566.33 54.6754 1567.37 54.9239 1568.41 54.9239V50.9239C1568 50.9239 1567.84 50.8308 1567.79 50.794L1565.44 54.0289ZM1568.41 54.9239C1569.23 54.9239 1570.31 54.8524 1571.62 54.7218L1571.22 50.7417C1569.96 50.8674 1569.04 50.9239 1568.41 50.9239V54.9239ZM1571.56 54.7271C1574.66 54.5142 1576.94 54.4114 1578.4 54.4114V50.4114C1576.79 50.4114 1574.41 50.5223 1571.28 50.7364L1571.56 54.7271ZM1578.4 54.4114C1582.66 54.4114 1585.68 55.1357 1587.67 56.3579L1589.76 52.9492C1586.88 51.182 1583.02 50.4114 1578.4 50.4114V54.4114ZM1587.67 56.3579C1589.46 57.4566 1590.37 59.0643 1590.37 61.5081H1594.37C1594.37 57.802 1592.84 54.8401 1589.76 52.9492L1587.67 56.3579ZM1590.37 61.5081C1590.37 65.5041 1588.87 68.1493 1585.98 69.8381L1587.99 73.2932C1592.27 70.7968 1594.37 66.7369 1594.37 61.5081H1590.37ZM1585.99 69.8292C1582.83 71.6384 1578.27 72.6406 1572.12 72.6406V76.6406C1578.62 76.6406 1583.97 75.5929 1587.98 73.3022L1585.99 69.8292ZM1661.05 47.4788V45.4788H1659.05V47.4788H1661.05ZM1688.41 47.4788H1690.41V45.4788H1688.41V47.4788ZM1688.41 74V76H1690.41V74H1688.41ZM1677.13 74L1675.15 74.2356L1675.35 76H1677.13V74ZM1675.79 62.6612L1677.77 62.4256L1673.88 62.0589L1675.79 62.6612ZM1668.93 71.6938L1669.96 73.4108L1668.93 71.6938ZM1645.36 71.7579L1644.36 73.4903L1644.37 73.4957L1645.36 71.7579ZM1637.48 63.494L1635.71 64.422L1635.71 64.4302L1635.71 64.4384L1637.48 63.494ZM1641.51 32.8088L1642.91 34.243L1641.51 32.8088ZM1677.39 28.837L1676.6 30.6753L1676.61 30.6782L1677.39 28.837ZM1688.15 37.1649L1689.06 38.9458L1691.22 37.8411L1689.72 35.9309L1688.15 37.1649ZM1676.88 43.0585L1675.94 41.289L1675.92 41.301L1675.9 41.3135L1676.88 43.0585ZM1675.27 43.9554L1673.86 45.3696L1674.93 46.4401L1676.25 45.7004L1675.27 43.9554ZM1669.44 40.2399L1668.73 42.1066L1668.74 42.1126L1668.76 42.1184L1669.44 40.2399ZM1653.24 42.2257L1654.69 43.5956L1654.7 43.5884L1654.71 43.5811L1653.24 42.2257ZM1653.43 58.4332L1652.03 59.8616L1652.04 59.8685L1652.04 59.8754L1653.43 58.4332ZM1668.93 60.7394L1668.35 58.8249L1668.34 58.8288L1668.93 60.7394ZM1673.54 57.8566L1675.03 59.1997L1678.06 55.8566H1673.54V57.8566ZM1661.05 57.8566H1659.05V59.8566H1661.05V57.8566ZM1661.05 49.4788H1688.41V45.4788H1661.05V49.4788ZM1686.41 47.4788V74H1690.41V47.4788H1686.41ZM1688.41 72H1677.13V76H1688.41V72ZM1679.12 73.7644L1677.77 62.4256L1673.8 62.8968L1675.15 74.2356L1679.12 73.7644ZM1673.88 62.0589C1672.73 65.7048 1670.73 68.2918 1667.91 69.9769L1669.96 73.4108C1673.71 71.1667 1676.28 67.732 1677.69 63.2635L1673.88 62.0589ZM1667.91 69.9769C1664.99 71.7168 1661.35 72.6406 1656.89 72.6406V76.6406C1661.9 76.6406 1666.29 75.5999 1669.96 73.4108L1667.91 69.9769ZM1656.89 72.6406C1652.88 72.6406 1649.39 71.7515 1646.35 70.02L1644.37 73.4957C1648.08 75.6078 1652.27 76.6406 1656.89 76.6406V72.6406ZM1646.36 70.0255C1643.37 68.301 1641 65.8283 1639.24 62.5496L1635.71 64.4384C1637.8 68.3345 1640.68 71.371 1644.36 73.4902L1646.36 70.0255ZM1639.25 62.566C1637.55 59.3125 1636.66 55.4564 1636.66 50.938H1632.66C1632.66 55.9861 1633.65 60.5006 1635.71 64.422L1639.25 62.566ZM1636.66 50.938C1636.66 43.7178 1638.8 38.2341 1642.91 34.243L1640.12 31.3746C1635.09 36.2666 1632.66 42.8691 1632.66 50.938H1636.66ZM1642.91 34.243C1646.95 30.3133 1653.45 28.1464 1662.85 28.1464V24.1464C1652.94 24.1464 1645.22 26.4211 1640.12 31.3746L1642.91 34.243ZM1662.85 28.1464C1668.14 28.1464 1672.71 29.0082 1676.6 30.6753L1678.18 26.9987C1673.69 25.0784 1668.57 24.1464 1662.85 24.1464V28.1464ZM1676.61 30.6782C1680.51 32.3344 1683.83 34.8959 1686.58 38.399L1689.72 35.9309C1686.58 31.9175 1682.72 28.927 1678.17 26.9958L1676.61 30.6782ZM1687.24 35.3841C1685.31 36.3728 1681.54 38.343 1675.94 41.289L1677.81 44.8281C1683.4 41.8804 1687.15 39.9216 1689.06 38.9458L1687.24 35.3841ZM1675.9 41.3135L1674.3 42.2104L1676.25 45.7004L1677.85 44.8036L1675.9 41.3135ZM1676.69 42.5412C1674.82 40.6689 1672.62 39.2723 1670.13 38.3613L1668.76 42.1184C1670.71 42.8303 1672.4 43.9107 1673.86 45.3696L1676.69 42.5412ZM1670.16 38.3732C1667.7 37.4273 1665.11 36.9586 1662.4 36.9586V40.9586C1664.64 40.9586 1666.74 41.3441 1668.73 42.1066L1670.16 38.3732ZM1662.4 36.9586C1657.96 36.9586 1654.28 38.1427 1651.77 40.8704L1654.71 43.5811C1656.21 41.9526 1658.63 40.9586 1662.4 40.9586V36.9586ZM1651.78 40.8559C1649.39 43.3928 1648.23 46.5436 1648.23 50.1693H1652.23C1652.23 47.4744 1653.06 45.3294 1654.69 43.5956L1651.78 40.8559ZM1648.23 50.1693C1648.23 54.0397 1649.45 57.338 1652.03 59.8616L1654.83 57.0048C1653.13 55.343 1652.23 53.1321 1652.23 50.1693H1648.23ZM1652.04 59.8754C1654.74 62.4637 1658.64 63.5722 1663.36 63.5722V59.5722C1659.19 59.5722 1656.48 58.588 1654.81 56.991L1652.04 59.8754ZM1663.36 63.5722C1665.48 63.5722 1667.53 63.2658 1669.52 62.6499L1668.34 58.8288C1666.74 59.3233 1665.08 59.5722 1663.36 59.5722V63.5722ZM1669.51 62.6538C1671.68 61.998 1673.53 60.8463 1675.03 59.1997L1672.06 56.5136C1671.08 57.6003 1669.86 58.3703 1668.35 58.825L1669.51 62.6538ZM1673.54 55.8566H1661.05V59.8566H1673.54V55.8566ZM1663.05 57.8566V47.4788H1659.05V57.8566H1663.05ZM1712.94 68.2986L1711.58 69.7661L1711.59 69.7729L1712.94 68.2986ZM1712.87 32.5525L1711.52 31.085L1711.51 31.0913L1712.87 32.5525ZM1756.18 32.5525L1754.81 34.0138L1754.82 34.0201L1756.18 32.5525ZM1756.24 68.2986L1757.6 69.7666L1756.24 68.2986ZM1744.78 58.8816L1746.08 60.4001L1746.09 60.3925L1746.1 60.3849L1744.78 58.8816ZM1744.78 41.9695L1743.46 43.4728L1744.78 41.9695ZM1724.34 41.9695L1725.66 43.4728L1724.34 41.9695ZM1724.34 58.8175L1725.66 57.3143L1724.34 58.8175ZM1734.53 72.6406C1724.98 72.6406 1718.37 70.5676 1714.29 66.8243L1711.59 69.7729C1716.73 74.4856 1724.52 76.6406 1734.53 76.6406V72.6406ZM1714.3 66.8311C1710.18 63.021 1708.02 57.6255 1708.02 50.3615H1704.02C1704.02 58.4722 1706.47 65.0346 1711.58 69.7661L1714.3 66.8311ZM1708.02 50.3615C1708.02 43.1849 1710.16 37.8266 1714.24 34.0137L1711.51 31.0913C1706.45 35.8199 1704.02 42.3343 1704.02 50.3615H1708.02ZM1714.23 34.0201C1718.32 30.2402 1724.94 28.1464 1734.53 28.1464V24.1464C1724.47 24.1464 1716.66 26.3235 1711.52 31.085L1714.23 34.0201ZM1734.53 28.1464C1744.17 28.1464 1750.78 30.2423 1754.81 34.0137L1757.54 31.0913C1752.44 26.3213 1744.62 24.1464 1734.53 24.1464V28.1464ZM1754.82 34.0201C1758.94 37.8344 1761.1 43.1906 1761.1 50.3615H1765.1C1765.1 42.3285 1762.64 35.8122 1757.54 31.085L1754.82 34.0201ZM1761.1 50.3615C1761.1 57.6785 1758.95 63.0691 1754.89 66.8305L1757.6 69.7666C1762.68 65.072 1765.1 58.5045 1765.1 50.3615H1761.1ZM1754.89 66.8305C1750.85 70.5631 1744.22 72.6406 1734.53 72.6406V76.6406C1744.65 76.6406 1752.5 74.4901 1757.6 69.7666L1754.89 66.8305ZM1734.53 63.5722C1739.43 63.5722 1743.44 62.661 1746.08 60.4001L1743.47 57.3631C1741.93 58.6896 1739.1 59.5722 1734.53 59.5722V63.5722ZM1746.1 60.3849C1748.77 58.0404 1749.92 54.5526 1749.92 50.3615H1745.92C1745.92 53.8577 1744.97 56.05 1743.46 57.3784L1746.1 60.3849ZM1749.92 50.3615C1749.92 46.2391 1748.76 42.8027 1746.1 40.4663L1743.46 43.4728C1744.98 44.8092 1745.92 46.9674 1745.92 50.3615H1749.92ZM1746.1 40.4663C1743.46 38.1503 1739.44 37.2149 1734.53 37.2149V41.2149C1739.1 41.2149 1741.91 42.1159 1743.46 43.4728L1746.1 40.4663ZM1734.53 37.2149C1729.65 37.2149 1725.66 38.1525 1723.02 40.4663L1725.66 43.4728C1727.21 42.1137 1730.01 41.2149 1734.53 41.2149V37.2149ZM1723.02 40.4663C1720.36 42.8027 1719.2 46.2391 1719.2 50.3615H1723.2C1723.2 46.9674 1724.14 44.8092 1725.66 43.4728L1723.02 40.4663ZM1719.2 50.3615C1719.2 54.5182 1720.35 57.9803 1723.02 60.3208L1725.66 57.3143C1724.14 55.9819 1723.2 53.8067 1723.2 50.3615H1719.2ZM1723.02 60.3208C1725.66 62.6346 1729.65 63.5722 1734.53 63.5722V59.5722C1730.01 59.5722 1727.21 58.6733 1725.66 57.3143L1723.02 60.3208ZM1804.09 43.2507H1802.09V44.6909L1803.46 45.1476L1804.09 43.2507ZM1804.09 30.3745L1804.77 28.493L1802.09 27.5274V30.3745H1804.09ZM1837.85 42.5461H1839.85V41.1411L1838.53 40.6646L1837.85 42.5461ZM1837.85 59.0097L1838.53 60.8912L1839.85 60.4147V59.0097H1837.85ZM1804.09 71.1813H1802.09V74.0284L1804.77 73.0628L1804.09 71.1813ZM1804.09 58.3051L1803.45 56.4099L1802.09 56.8687V58.3051H1804.09ZM1826.51 50.7459L1827.15 52.6411L1832.8 50.7378L1827.15 48.849L1826.51 50.7459ZM1806.09 43.2507V30.3745H1802.09V43.2507H1806.09ZM1803.41 32.2559L1837.17 44.4275L1838.53 40.6646L1804.77 28.493L1803.41 32.2559ZM1835.85 42.5461V59.0097H1839.85V42.5461H1835.85ZM1837.17 57.1283L1803.41 69.2999L1804.77 73.0628L1838.53 60.8912L1837.17 57.1283ZM1806.09 71.1813V58.3051H1802.09V71.1813H1806.09ZM1804.73 60.2002L1827.15 52.6411L1825.87 48.8507L1803.45 56.4099L1804.73 60.2002ZM1827.15 48.849L1804.72 41.3539L1803.46 45.1476L1825.88 52.6427L1827.15 48.849ZM1851.62 43.2507H1849.62V44.6909L1850.98 45.1476L1851.62 43.2507ZM1851.62 30.3745L1852.29 28.493L1849.62 27.5274V30.3745H1851.62ZM1885.38 42.5461H1887.38V41.1411L1886.05 40.6646L1885.38 42.5461ZM1885.38 59.0097L1886.05 60.8912L1887.38 60.4147V59.0097H1885.38ZM1851.62 71.1813H1849.62V74.0284L1852.29 73.0628L1851.62 71.1813ZM1851.62 58.3051L1850.98 56.4099L1849.62 56.8687V58.3051H1851.62ZM1874.04 50.7459L1874.68 52.6411L1880.32 50.7378L1874.67 48.849L1874.04 50.7459ZM1853.62 43.2507V30.3745H1849.62V43.2507H1853.62ZM1850.94 32.2559L1884.7 44.4275L1886.05 40.6646L1852.29 28.493L1850.94 32.2559ZM1883.38 42.5461V59.0097H1887.38V42.5461H1883.38ZM1884.7 57.1283L1850.94 69.2999L1852.29 73.0628L1886.05 60.8912L1884.7 57.1283ZM1853.62 71.1813V58.3051H1849.62V71.1813H1853.62ZM1852.25 60.2002L1874.68 52.6411L1873.4 48.8507L1850.98 56.4099L1852.25 60.2002ZM1874.67 48.849L1852.25 41.3539L1850.98 45.1476L1873.4 52.6427L1874.67 48.849ZM1899.14 43.2507H1897.14V44.6909L1898.51 45.1476L1899.14 43.2507ZM1899.14 30.3745L1899.82 28.493L1897.14 27.5274V30.3745H1899.14ZM1932.9 42.5461H1934.9V41.1411L1933.58 40.6646L1932.9 42.5461ZM1932.9 59.0097L1933.58 60.8912L1934.9 60.4147V59.0097H1932.9ZM1899.14 71.1813H1897.14V74.0284L1899.82 73.0628L1899.14 71.1813ZM1899.14 58.3051L1898.5 56.4099L1897.14 56.8687V58.3051H1899.14ZM1921.56 50.7459L1922.2 52.6411L1927.85 50.7378L1922.2 48.849L1921.56 50.7459ZM1901.14 43.2507V30.3745H1897.14V43.2507H1901.14ZM1898.46 32.2559L1932.22 44.4275L1933.58 40.6646L1899.82 28.493L1898.46 32.2559ZM1930.9 42.5461V59.0097H1934.9V42.5461H1930.9ZM1932.22 57.1283L1898.46 69.2999L1899.82 73.0628L1933.58 60.8912L1932.22 57.1283ZM1901.14 71.1813V58.3051H1897.14V71.1813H1901.14ZM1899.78 60.2002L1922.2 52.6411L1920.92 48.8507L1898.5 56.4099L1899.78 60.2002ZM1922.2 48.849L1899.77 41.3539L1898.51 45.1476L1920.93 52.6427L1922.2 48.849Z" fill="#D7F367"/>
</svg>
